<?xml version="1.0" encoding="UTF-8" standalone="no"?>
<svg width="257.175mm" height="91.7222mm"
 xmlns="http://www.w3.org/2000/svg" xmlns:xlink="http://www.w3.org/1999/xlink"  version="1.2" baseProfile="tiny">
<title>Qt SVG Document</title>
<desc>Generated with Qt</desc>
<defs>
</defs>
<g fill="none" stroke="black" stroke-width="1" fill-rule="evenodd" stroke-linecap="square" stroke-linejoin="bevel" >

<g fill="none" stroke="#000000" stroke-opacity="1" stroke-width="1" stroke-linecap="square" stroke-linejoin="bevel" transform="matrix(1,0,0,1,0,0)"
font-family="Ubuntu Sans" font-size="11" font-weight="400" font-style="normal" 
>
</g>

<g fill="none" stroke="#000000" stroke-opacity="1" stroke-width="1" stroke-linecap="square" stroke-linejoin="bevel" transform="matrix(1,0,0,1,0,0)"
font-family="Ubuntu Sans" font-size="11" font-weight="400" font-style="normal" 
>
</g>

<g fill="none" stroke="#000000" stroke-opacity="1" stroke-width="1" stroke-linecap="square" stroke-linejoin="bevel" transform="matrix(2,0,0,2,-15,275)"
font-family="Ubuntu Sans" font-size="11" font-weight="400" font-style="normal" 
>
</g>

<g fill="#ffffff" fill-opacity="1" stroke="none" transform="matrix(2,0,0,2,-15,275)"
font-family="Ubuntu Sans" font-size="11" font-weight="400" font-style="normal" 
>
<rect x="7.5" y="-137.5" width="364.282" height="130"/>
</g>

<g fill="none" stroke="#000000" stroke-opacity="1" stroke-width="1" stroke-linecap="square" stroke-linejoin="bevel" transform="matrix(2,0,0,2,-15,275)"
font-family="Ubuntu Sans" font-size="11" font-weight="400" font-style="normal" 
>
</g>

<g fill="none" stroke="#000000" stroke-opacity="1" stroke-width="1" stroke-linecap="square" stroke-linejoin="bevel" transform="matrix(2,0,0,2,-15,275)"
font-family="Ubuntu Sans" font-size="11" font-weight="400" font-style="normal" 
>
</g>

<g fill="none" stroke="#000000" stroke-opacity="1" stroke-width="1" stroke-linecap="square" stroke-linejoin="bevel" transform="matrix(2,0,0,2,-15,275)"
font-family="Ubuntu Sans" font-size="11" font-weight="400" font-style="normal" 
>
</g>

<g fill="none" stroke="#000000" stroke-opacity="1" stroke-width="1" stroke-linecap="square" stroke-linejoin="bevel" transform="matrix(2,0,0,2,-15,275)"
font-family="Ubuntu Sans" font-size="11" font-weight="400" font-style="normal" 
>
</g>

<g fill="none" stroke="#000000" stroke-opacity="1" stroke-width="1" stroke-linecap="square" stroke-linejoin="round" transform="matrix(2,0,0,2,-15,275)"
font-family="Ubuntu Sans" font-size="11" font-weight="400" font-style="normal" 
>
<rect x="8" y="-137" width="140" height="129"/>
</g>

<g fill="none" stroke="#000000" stroke-opacity="1" stroke-width="1" stroke-linecap="square" stroke-linejoin="bevel" transform="matrix(2,0,0,2,-15,275)"
font-family="Ubuntu Sans" font-size="11" font-weight="400" font-style="normal" 
>
</g>

<g fill="none" stroke="#000000" stroke-opacity="1" stroke-width="1" stroke-linecap="square" stroke-linejoin="bevel" transform="matrix(2,0,0,2,108.625,8)"
font-family="Ubuntu Sans" font-size="11" font-weight="400" font-style="normal" 
>
</g>

<g fill="none" stroke="#000000" stroke-opacity="1" stroke-width="1" stroke-linecap="square" stroke-linejoin="bevel" transform="matrix(2,0,0,2,108.625,8)"
font-family="sans" font-size="11" font-weight="100" font-style="normal" 
>
</g>

<g fill="#000000" fill-opacity="1" stroke="#000000" stroke-opacity="1" stroke-width="1" stroke-linecap="square" stroke-linejoin="round" transform="matrix(2,0,0,2,108.625,8)"
font-family="sans" font-size="11" font-weight="100" font-style="normal" 
>
<path vector-effect="none" fill-rule="nonzero" d="M3.98438,4.14063 L1.0625,12 L0.109375,12 L3.03125,4.14063 L3.98438,4.14063 M6.98438,11.3125 C7.13021,11.3125 7.28125,11.2995 7.4375,11.2734 C7.59375,11.2474 7.71875,11.224 7.8125,11.2031 L7.8125,11.9375 C7.70833,11.9896 7.5599,12.0313 7.36719,12.0625 C7.17448,12.0938 6.98958,12.1094 6.8125,12.1094 C6.51042,12.1094 6.22917,12.0573 5.96875,11.9531 C5.70833,11.849 5.4974,11.6641 5.33594,11.3984 C5.17448,11.1328 5.09375,10.7604 5.09375,10.2813 L5.09375,6.84375 L4.25,6.84375 L4.25,6.39063 L5.09375,6 L5.48438,4.75 L6.0625,4.75 L6.0625,6.10938 L7.76563,6.10938 L7.76563,6.84375 L6.0625,6.84375 L6.0625,10.2656 C6.0625,10.6198 6.14844,10.8828 6.32031,11.0547 C6.49219,11.2266 6.71354,11.3125 6.98438,11.3125 M13.9063,6.10938 L13.9063,12 L13.125,12 L12.9688,11.2188 L12.9375,11.2188 C12.7396,11.5313 12.474,11.7578 12.1406,11.8984 C11.8073,12.0391 11.4479,12.1094 11.0625,12.1094 C10.3542,12.1094 9.82031,11.9401 9.46094,11.6016 C9.10156,11.263 8.92188,10.7188 8.92188,9.96875 L8.92188,6.10938 L9.89063,6.10938 L9.89063,9.90625 C9.89063,10.8438 10.3281,11.3125 11.2031,11.3125 C11.8594,11.3125 12.3125,11.1276 12.5625,10.7578 C12.8125,10.388 12.9375,9.85938 12.9375,9.17188 L12.9375,6.10938 L13.9063,6.10938 M18.5313,6 C18.6354,6 18.7526,6.00521 18.8828,6.01563 C19.013,6.02604 19.125,6.04167 19.2188,6.0625 L19.0938,6.95313 C19,6.93229 18.8984,6.91406 18.7891,6.89844 C18.6797,6.88281 18.5729,6.875 18.4688,6.875 C18.1667,6.875 17.8828,6.95833 17.6172,7.125 C17.3516,7.29167 17.1406,7.52344 16.9844,7.82031 C16.8281,8.11719 16.75,8.46354 16.75,8.85938 L16.75,12 L15.7813,12 L15.7813,6.10938 L16.5781,6.10938 L16.6875,7.1875 L16.7188,7.1875 C16.9167,6.86458 17.1641,6.58594 17.4609,6.35156 C17.7578,6.11719 18.1146,6 18.5313,6 M22.2813,11.3125 C22.4271,11.3125 22.5781,11.2995 22.7344,11.2734 C22.8906,11.2474 23.0156,11.224 23.1094,11.2031 L23.1094,11.9375 C23.0052,11.9896 22.8568,12.0313 22.6641,12.0625 C22.4714,12.0938 22.2865,12.1094 22.1094,12.1094 C21.8073,12.1094 21.526,12.0573 21.2656,11.9531 C21.0052,11.849 20.7943,11.6641 20.6328,11.3984 C20.4714,11.1328 20.3906,10.7604 20.3906,10.2813 L20.3906,6.84375 L19.5469,6.84375 L19.5469,6.39063 L20.3906,6 L20.7813,4.75 L21.3594,4.75 L21.3594,6.10938 L23.0625,6.10938 L23.0625,6.84375 L21.3594,6.84375 L21.3594,10.2656 C21.3594,10.6198 21.4453,10.8828 21.6172,11.0547 C21.7891,11.2266 22.0104,11.3125 22.2813,11.3125 M25.25,12 L24.2813,12 L24.2813,3.64063 L25.25,3.64063 L25.25,12 M29.3906,6 C29.8906,6 30.3229,6.10938 30.6875,6.32813 C31.0521,6.54688 31.3307,6.85677 31.5234,7.25781 C31.7161,7.65885 31.8125,8.125 31.8125,8.65625 L31.8125,9.23438 L27.7813,9.23438 C27.7917,9.90104 27.9609,10.4089 28.2891,10.7578 C28.6172,11.1068 29.0729,11.2813 29.6563,11.2813 C30.0313,11.2813 30.3646,11.2474 30.6563,11.1797 C30.9479,11.112 31.2448,11.0104 31.5469,10.875 L31.5469,11.7188 C31.2448,11.8542 30.9479,11.9531 30.6563,12.0156 C30.3646,12.0781 30.0156,12.1094 29.6094,12.1094 C29.0573,12.1094 28.5651,11.9948 28.1328,11.7656 C27.7005,11.5365 27.3672,11.1979 27.1328,10.75 C26.8984,10.3021 26.7813,9.75 26.7813,9.09375 C26.7813,8.44792 26.888,7.89323 27.1016,7.42969 C27.3151,6.96615 27.6198,6.61198 28.0156,6.36719 C28.4115,6.1224 28.8698,6 29.3906,6 M29.375,6.78125 C28.9167,6.78125 28.5521,6.92969 28.2813,7.22656 C28.0104,7.52344 27.849,7.9375 27.7969,8.46875 L30.7969,8.46875 C30.7969,7.96875 30.6823,7.5625 30.4531,7.25 C30.224,6.9375 29.8646,6.78125 29.375,6.78125 "/>
</g>

<g fill="none" stroke="#000000" stroke-opacity="1" stroke-width="1" stroke-linecap="square" stroke-linejoin="bevel" transform="matrix(2,0,0,2,108.625,8)"
font-family="sans" font-size="11" font-weight="100" font-style="normal" 
>
</g>

<g fill="none" stroke="#000000" stroke-opacity="1" stroke-width="1" stroke-linecap="square" stroke-linejoin="bevel" transform="matrix(2,0,0,2,108.625,8)"
font-family="Ubuntu Sans" font-size="11" font-weight="400" font-style="normal" 
>
</g>

<g fill="none" stroke="#000000" stroke-opacity="1" stroke-width="1" stroke-linecap="square" stroke-linejoin="bevel" transform="matrix(2,0,0,2,-15,275)"
font-family="Ubuntu Sans" font-size="11" font-weight="400" font-style="normal" 
>
</g>

<g fill="none" stroke="#000000" stroke-opacity="1" stroke-width="1" stroke-linecap="square" stroke-linejoin="bevel" transform="matrix(2,0,0,2,-15,275)"
font-family="Ubuntu Sans" font-size="11" font-weight="400" font-style="normal" 
>
</g>

<g fill="none" stroke="#000000" stroke-opacity="1" stroke-width="1" stroke-linecap="square" stroke-linejoin="bevel" transform="matrix(2,0,0,2,-15,275)"
font-family="Ubuntu Sans" font-size="11" font-weight="400" font-style="normal" 
>
</g>

<g fill="none" stroke="#000000" stroke-opacity="1" stroke-width="1" stroke-linecap="square" stroke-linejoin="round" transform="matrix(2,0,0,2,-15,275)"
font-family="Ubuntu Sans" font-size="11" font-weight="400" font-style="normal" 
>
<rect x="16.5008" y="-105.5" width="122.998" height="35"/>
</g>

<g fill="none" stroke="#000000" stroke-opacity="1" stroke-width="1" stroke-linecap="square" stroke-linejoin="bevel" transform="matrix(2,0,0,2,-15,275)"
font-family="Ubuntu Sans" font-size="11" font-weight="400" font-style="normal" 
>
</g>

<g fill="none" stroke="#000000" stroke-opacity="1" stroke-width="1" stroke-linecap="square" stroke-linejoin="bevel" transform="matrix(2,0,0,2,62.7656,83)"
font-family="Ubuntu Sans" font-size="11" font-weight="400" font-style="normal" 
>
</g>

<g fill="none" stroke="#000000" stroke-opacity="1" stroke-width="1" stroke-linecap="square" stroke-linejoin="bevel" transform="matrix(2,0,0,2,62.7656,83)"
font-family="sans" font-size="11" font-weight="100" font-style="normal" 
>
</g>

<g fill="#000000" fill-opacity="1" stroke="#000000" stroke-opacity="1" stroke-width="1" stroke-linecap="square" stroke-linejoin="round" transform="matrix(2,0,0,2,62.7656,83)"
font-family="sans" font-size="11" font-weight="100" font-style="normal" 
>
<path vector-effect="none" fill-rule="nonzero" d="M3.98438,4.14063 L1.0625,12 L0.109375,12 L3.03125,4.14063 L3.98438,4.14063 M6.98438,11.3125 C7.13021,11.3125 7.28125,11.2995 7.4375,11.2734 C7.59375,11.2474 7.71875,11.224 7.8125,11.2031 L7.8125,11.9375 C7.70833,11.9896 7.5599,12.0313 7.36719,12.0625 C7.17448,12.0938 6.98958,12.1094 6.8125,12.1094 C6.51042,12.1094 6.22917,12.0573 5.96875,11.9531 C5.70833,11.849 5.4974,11.6641 5.33594,11.3984 C5.17448,11.1328 5.09375,10.7604 5.09375,10.2813 L5.09375,6.84375 L4.25,6.84375 L4.25,6.39063 L5.09375,6 L5.48438,4.75 L6.0625,4.75 L6.0625,6.10938 L7.76563,6.10938 L7.76563,6.84375 L6.0625,6.84375 L6.0625,10.2656 C6.0625,10.6198 6.14844,10.8828 6.32031,11.0547 C6.49219,11.2266 6.71354,11.3125 6.98438,11.3125 M13.9063,6.10938 L13.9063,12 L13.125,12 L12.9688,11.2188 L12.9375,11.2188 C12.7396,11.5313 12.474,11.7578 12.1406,11.8984 C11.8073,12.0391 11.4479,12.1094 11.0625,12.1094 C10.3542,12.1094 9.82031,11.9401 9.46094,11.6016 C9.10156,11.263 8.92188,10.7188 8.92188,9.96875 L8.92188,6.10938 L9.89063,6.10938 L9.89063,9.90625 C9.89063,10.8438 10.3281,11.3125 11.2031,11.3125 C11.8594,11.3125 12.3125,11.1276 12.5625,10.7578 C12.8125,10.388 12.9375,9.85938 12.9375,9.17188 L12.9375,6.10938 L13.9063,6.10938 M18.5313,6 C18.6354,6 18.7526,6.00521 18.8828,6.01563 C19.013,6.02604 19.125,6.04167 19.2188,6.0625 L19.0938,6.95313 C19,6.93229 18.8984,6.91406 18.7891,6.89844 C18.6797,6.88281 18.5729,6.875 18.4688,6.875 C18.1667,6.875 17.8828,6.95833 17.6172,7.125 C17.3516,7.29167 17.1406,7.52344 16.9844,7.82031 C16.8281,8.11719 16.75,8.46354 16.75,8.85938 L16.75,12 L15.7813,12 L15.7813,6.10938 L16.5781,6.10938 L16.6875,7.1875 L16.7188,7.1875 C16.9167,6.86458 17.1641,6.58594 17.4609,6.35156 C17.7578,6.11719 18.1146,6 18.5313,6 M22.2813,11.3125 C22.4271,11.3125 22.5781,11.2995 22.7344,11.2734 C22.8906,11.2474 23.0156,11.224 23.1094,11.2031 L23.1094,11.9375 C23.0052,11.9896 22.8568,12.0313 22.6641,12.0625 C22.4714,12.0938 22.2865,12.1094 22.1094,12.1094 C21.8073,12.1094 21.526,12.0573 21.2656,11.9531 C21.0052,11.849 20.7943,11.6641 20.6328,11.3984 C20.4714,11.1328 20.3906,10.7604 20.3906,10.2813 L20.3906,6.84375 L19.5469,6.84375 L19.5469,6.39063 L20.3906,6 L20.7813,4.75 L21.3594,4.75 L21.3594,6.10938 L23.0625,6.10938 L23.0625,6.84375 L21.3594,6.84375 L21.3594,10.2656 C21.3594,10.6198 21.4453,10.8828 21.6172,11.0547 C21.7891,11.2266 22.0104,11.3125 22.2813,11.3125 M25.25,12 L24.2813,12 L24.2813,3.64063 L25.25,3.64063 L25.25,12 M29.3906,6 C29.8906,6 30.3229,6.10938 30.6875,6.32813 C31.0521,6.54688 31.3307,6.85677 31.5234,7.25781 C31.7161,7.65885 31.8125,8.125 31.8125,8.65625 L31.8125,9.23438 L27.7813,9.23438 C27.7917,9.90104 27.9609,10.4089 28.2891,10.7578 C28.6172,11.1068 29.0729,11.2813 29.6563,11.2813 C30.0313,11.2813 30.3646,11.2474 30.6563,11.1797 C30.9479,11.112 31.2448,11.0104 31.5469,10.875 L31.5469,11.7188 C31.2448,11.8542 30.9479,11.9531 30.6563,12.0156 C30.3646,12.0781 30.0156,12.1094 29.6094,12.1094 C29.0573,12.1094 28.5651,11.9948 28.1328,11.7656 C27.7005,11.5365 27.3672,11.1979 27.1328,10.75 C26.8984,10.3021 26.7813,9.75 26.7813,9.09375 C26.7813,8.44792 26.888,7.89323 27.1016,7.42969 C27.3151,6.96615 27.6198,6.61198 28.0156,6.36719 C28.4115,6.1224 28.8698,6 29.3906,6 M29.375,6.78125 C28.9167,6.78125 28.5521,6.92969 28.2813,7.22656 C28.0104,7.52344 27.849,7.9375 27.7969,8.46875 L30.7969,8.46875 C30.7969,7.96875 30.6823,7.5625 30.4531,7.25 C30.224,6.9375 29.8646,6.78125 29.375,6.78125 M36.3594,4.14063 L33.4375,12 L32.4844,12 L35.4063,4.14063 L36.3594,4.14063 M39.75,12.1094 C39.2292,12.1094 38.7656,12.0026 38.3594,11.7891 C37.9531,11.5755 37.6354,11.2448 37.4063,10.7969 C37.1771,10.349 37.0625,9.77604 37.0625,9.07813 C37.0625,8.35938 37.1823,7.77083 37.4219,7.3125 C37.6615,6.85417 37.9896,6.52083 38.4063,6.3125 C38.8229,6.10417 39.2917,6 39.8125,6 C40.1146,6 40.4063,6.03125 40.6875,6.09375 C40.9688,6.15625 41.1979,6.22917 41.375,6.3125 L41.0781,7.10938 C40.901,7.04688 40.6953,6.98698 40.4609,6.92969 C40.2266,6.8724 40.0052,6.84375 39.7969,6.84375 C38.6406,6.84375 38.0625,7.58854 38.0625,9.07813 C38.0625,9.78646 38.2031,10.3307 38.4844,10.7109 C38.7656,11.0911 39.1875,11.2813 39.75,11.2813 C40.0729,11.2813 40.3568,11.2474 40.6016,11.1797 C40.8464,11.112 41.0677,11.0313 41.2656,10.9375 L41.2656,11.7969 C41.0677,11.8906 40.8516,11.9661 40.6172,12.0234 C40.3828,12.0807 40.0938,12.1094 39.75,12.1094 M49.125,6 C49.7917,6 50.2891,6.16927 50.6172,6.50781 C50.9453,6.84635 51.1094,7.39583 51.1094,8.15625 L51.1094,12 L50.1563,12 L50.1563,8.20313 C50.1563,7.27604 49.7552,6.8125 48.9531,6.8125 C48.3802,6.8125 47.9714,6.97656 47.7266,7.30469 C47.4818,7.63281 47.3594,8.11458 47.3594,8.75 L47.3594,12 L46.4063,12 L46.4063,8.20313 C46.4063,7.27604 46,6.8125 45.1875,6.8125 C44.5938,6.8125 44.1849,6.99479 43.9609,7.35938 C43.737,7.72396 43.625,8.25 43.625,8.9375 L43.625,12 L42.6563,12 L42.6563,6.10938 L43.4375,6.10938 L43.5781,6.90625 L43.6406,6.90625 C43.8177,6.59375 44.0625,6.36458 44.375,6.21875 C44.6875,6.07292 45.0208,6 45.375,6 C46.2917,6 46.8906,6.32813 47.1719,6.98438 L47.2344,6.98438 C47.4323,6.65104 47.7005,6.40365 48.0391,6.24219 C48.3776,6.08073 48.7396,6 49.125,6 M55.0313,12.1094 C54.2917,12.1094 53.7031,11.8542 53.2656,11.3438 C52.8281,10.8333 52.6094,10.0729 52.6094,9.0625 C52.6094,8.05208 52.8307,7.28906 53.2734,6.77344 C53.7161,6.25781 54.3021,6 55.0313,6 C55.4896,6 55.8646,6.08333 56.1563,6.25 C56.4479,6.41667 56.6823,6.61979 56.8594,6.85938 L56.9219,6.85938 C56.9219,6.76563 56.9115,6.625 56.8906,6.4375 C56.8698,6.25 56.8594,6.10417 56.8594,6 L56.8594,3.64063 L57.8281,3.64063 L57.8281,12 L57.0469,12 L56.9063,11.2031 L56.8594,11.2031 C56.6823,11.4531 56.4479,11.6667 56.1563,11.8438 C55.8646,12.0208 55.4896,12.1094 55.0313,12.1094 M55.1719,11.3125 C55.7969,11.3125 56.237,11.1406 56.4922,10.7969 C56.7474,10.4531 56.875,9.9375 56.875,9.25 L56.875,9.07813 C56.875,8.33854 56.7526,7.77344 56.5078,7.38281 C56.263,6.99219 55.8177,6.79688 55.1719,6.79688 C54.651,6.79688 54.2604,7.00521 54,7.42188 C53.7396,7.83854 53.6094,8.39063 53.6094,9.07813 C53.6094,9.78646 53.7396,10.3359 54,10.7266 C54.2604,11.1172 54.651,11.3125 55.1719,11.3125 M63.6563,13.6875 L58.7344,13.6875 L58.7344,12.9844 L63.6563,12.9844 L63.6563,13.6875 M65.8594,12 L63.625,6.10938 L64.6563,6.10938 L65.9063,9.57813 C65.9688,9.74479 66.0339,9.92708 66.1016,10.125 C66.1693,10.3229 66.2292,10.5104 66.2813,10.6875 C66.3333,10.8646 66.3698,11.0156 66.3906,11.1406 L66.4375,11.1406 C66.4583,11.0156 66.4974,10.862 66.5547,10.6797 C66.612,10.4974 66.6745,10.3073 66.7422,10.1094 C66.8099,9.91146 66.8698,9.73438 66.9219,9.57813 L68.1719,6.10938 L69.2188,6.10938 L66.9688,12 L65.8594,12 M72.4219,6 C72.9219,6 73.3542,6.10938 73.7188,6.32813 C74.0833,6.54688 74.362,6.85677 74.5547,7.25781 C74.7474,7.65885 74.8438,8.125 74.8438,8.65625 L74.8438,9.23438 L70.8125,9.23438 C70.8229,9.90104 70.9922,10.4089 71.3203,10.7578 C71.6484,11.1068 72.1042,11.2813 72.6875,11.2813 C73.0625,11.2813 73.3958,11.2474 73.6875,11.1797 C73.9792,11.112 74.276,11.0104 74.5781,10.875 L74.5781,11.7188 C74.276,11.8542 73.9792,11.9531 73.6875,12.0156 C73.3958,12.0781 73.0469,12.1094 72.6406,12.1094 C72.0885,12.1094 71.5964,11.9948 71.1641,11.7656 C70.7318,11.5365 70.3984,11.1979 70.1641,10.75 C69.9297,10.3021 69.8125,9.75 69.8125,9.09375 C69.8125,8.44792 69.9193,7.89323 70.1328,7.42969 C70.3464,6.96615 70.651,6.61198 71.0469,6.36719 C71.4427,6.1224 71.901,6 72.4219,6 M72.4063,6.78125 C71.9479,6.78125 71.5833,6.92969 71.3125,7.22656 C71.0417,7.52344 70.8802,7.9375 70.8281,8.46875 L73.8281,8.46875 C73.8281,7.96875 73.7135,7.5625 73.4844,7.25 C73.2552,6.9375 72.8958,6.78125 72.4063,6.78125 M77.3125,12 L76.3438,12 L76.3438,3.64063 L77.3125,3.64063 L77.3125,12"/>
</g>

<g fill="none" stroke="#000000" stroke-opacity="1" stroke-width="1" stroke-linecap="square" stroke-linejoin="bevel" transform="matrix(2,0,0,2,62.7656,83)"
font-family="sans" font-size="11" font-weight="100" font-style="normal" 
>
</g>

<g fill="none" stroke="#000000" stroke-opacity="1" stroke-width="1" stroke-linecap="square" stroke-linejoin="bevel" transform="matrix(2,0,0,2,62.7656,83)"
font-family="Ubuntu Sans" font-size="11" font-weight="400" font-style="normal" 
>
</g>

<g fill="none" stroke="#000000" stroke-opacity="1" stroke-width="1" stroke-linecap="square" stroke-linejoin="bevel" transform="matrix(2,0,0,2,-15,275)"
font-family="Ubuntu Sans" font-size="11" font-weight="400" font-style="normal" 
>
</g>

<g fill="none" stroke="#000000" stroke-opacity="1" stroke-width="1" stroke-linecap="square" stroke-linejoin="bevel" transform="matrix(2,0,0,2,-15,275)"
font-family="Ubuntu Sans" font-size="11" font-weight="400" font-style="normal" 
>
</g>

<g fill="none" stroke="#000000" stroke-opacity="1" stroke-width="1" stroke-linecap="square" stroke-linejoin="bevel" transform="matrix(2,0,0,2,-15,275)"
font-family="Ubuntu Sans" font-size="11" font-weight="400" font-style="normal" 
>
</g>

<g fill="none" stroke="#000000" stroke-opacity="1" stroke-width="1" stroke-linecap="square" stroke-linejoin="round" transform="matrix(2,0,0,2,-15,275)"
font-family="Ubuntu Sans" font-size="11" font-weight="400" font-style="normal" 
>
<rect x="29" y="-51.5" width="98" height="35"/>
</g>

<g fill="none" stroke="#000000" stroke-opacity="1" stroke-width="1" stroke-linecap="square" stroke-linejoin="bevel" transform="matrix(2,0,0,2,-15,275)"
font-family="Ubuntu Sans" font-size="11" font-weight="400" font-style="normal" 
>
</g>

<g fill="none" stroke="#000000" stroke-opacity="1" stroke-width="1" stroke-linecap="square" stroke-linejoin="bevel" transform="matrix(2,0,0,2,79.6875,191)"
font-family="Ubuntu Sans" font-size="11" font-weight="400" font-style="normal" 
>
</g>

<g fill="none" stroke="#000000" stroke-opacity="1" stroke-width="1" stroke-linecap="square" stroke-linejoin="bevel" transform="matrix(2,0,0,2,79.6875,191)"
font-family="sans" font-size="11" font-weight="100" font-style="normal" 
>
</g>

<g fill="#000000" fill-opacity="1" stroke="#000000" stroke-opacity="1" stroke-width="1" stroke-linecap="square" stroke-linejoin="round" transform="matrix(2,0,0,2,79.6875,191)"
font-family="sans" font-size="11" font-weight="100" font-style="normal" 
>
<path vector-effect="none" fill-rule="nonzero" d="M3.98438,4.14063 L1.0625,12 L0.109375,12 L3.03125,4.14063 L3.98438,4.14063 M6.98438,11.3125 C7.13021,11.3125 7.28125,11.2995 7.4375,11.2734 C7.59375,11.2474 7.71875,11.224 7.8125,11.2031 L7.8125,11.9375 C7.70833,11.9896 7.5599,12.0313 7.36719,12.0625 C7.17448,12.0938 6.98958,12.1094 6.8125,12.1094 C6.51042,12.1094 6.22917,12.0573 5.96875,11.9531 C5.70833,11.849 5.4974,11.6641 5.33594,11.3984 C5.17448,11.1328 5.09375,10.7604 5.09375,10.2813 L5.09375,6.84375 L4.25,6.84375 L4.25,6.39063 L5.09375,6 L5.48438,4.75 L6.0625,4.75 L6.0625,6.10938 L7.76563,6.10938 L7.76563,6.84375 L6.0625,6.84375 L6.0625,10.2656 C6.0625,10.6198 6.14844,10.8828 6.32031,11.0547 C6.49219,11.2266 6.71354,11.3125 6.98438,11.3125 M13.9063,6.10938 L13.9063,12 L13.125,12 L12.9688,11.2188 L12.9375,11.2188 C12.7396,11.5313 12.474,11.7578 12.1406,11.8984 C11.8073,12.0391 11.4479,12.1094 11.0625,12.1094 C10.3542,12.1094 9.82031,11.9401 9.46094,11.6016 C9.10156,11.263 8.92188,10.7188 8.92188,9.96875 L8.92188,6.10938 L9.89063,6.10938 L9.89063,9.90625 C9.89063,10.8438 10.3281,11.3125 11.2031,11.3125 C11.8594,11.3125 12.3125,11.1276 12.5625,10.7578 C12.8125,10.388 12.9375,9.85938 12.9375,9.17188 L12.9375,6.10938 L13.9063,6.10938 M18.5313,6 C18.6354,6 18.7526,6.00521 18.8828,6.01563 C19.013,6.02604 19.125,6.04167 19.2188,6.0625 L19.0938,6.95313 C19,6.93229 18.8984,6.91406 18.7891,6.89844 C18.6797,6.88281 18.5729,6.875 18.4688,6.875 C18.1667,6.875 17.8828,6.95833 17.6172,7.125 C17.3516,7.29167 17.1406,7.52344 16.9844,7.82031 C16.8281,8.11719 16.75,8.46354 16.75,8.85938 L16.75,12 L15.7813,12 L15.7813,6.10938 L16.5781,6.10938 L16.6875,7.1875 L16.7188,7.1875 C16.9167,6.86458 17.1641,6.58594 17.4609,6.35156 C17.7578,6.11719 18.1146,6 18.5313,6 M22.2813,11.3125 C22.4271,11.3125 22.5781,11.2995 22.7344,11.2734 C22.8906,11.2474 23.0156,11.224 23.1094,11.2031 L23.1094,11.9375 C23.0052,11.9896 22.8568,12.0313 22.6641,12.0625 C22.4714,12.0938 22.2865,12.1094 22.1094,12.1094 C21.8073,12.1094 21.526,12.0573 21.2656,11.9531 C21.0052,11.849 20.7943,11.6641 20.6328,11.3984 C20.4714,11.1328 20.3906,10.7604 20.3906,10.2813 L20.3906,6.84375 L19.5469,6.84375 L19.5469,6.39063 L20.3906,6 L20.7813,4.75 L21.3594,4.75 L21.3594,6.10938 L23.0625,6.10938 L23.0625,6.84375 L21.3594,6.84375 L21.3594,10.2656 C21.3594,10.6198 21.4453,10.8828 21.6172,11.0547 C21.7891,11.2266 22.0104,11.3125 22.2813,11.3125 M25.25,12 L24.2813,12 L24.2813,3.64063 L25.25,3.64063 L25.25,12 M29.3906,6 C29.8906,6 30.3229,6.10938 30.6875,6.32813 C31.0521,6.54688 31.3307,6.85677 31.5234,7.25781 C31.7161,7.65885 31.8125,8.125 31.8125,8.65625 L31.8125,9.23438 L27.7813,9.23438 C27.7917,9.90104 27.9609,10.4089 28.2891,10.7578 C28.6172,11.1068 29.0729,11.2813 29.6563,11.2813 C30.0313,11.2813 30.3646,11.2474 30.6563,11.1797 C30.9479,11.112 31.2448,11.0104 31.5469,10.875 L31.5469,11.7188 C31.2448,11.8542 30.9479,11.9531 30.6563,12.0156 C30.3646,12.0781 30.0156,12.1094 29.6094,12.1094 C29.0573,12.1094 28.5651,11.9948 28.1328,11.7656 C27.7005,11.5365 27.3672,11.1979 27.1328,10.75 C26.8984,10.3021 26.7813,9.75 26.7813,9.09375 C26.7813,8.44792 26.888,7.89323 27.1016,7.42969 C27.3151,6.96615 27.6198,6.61198 28.0156,6.36719 C28.4115,6.1224 28.8698,6 29.3906,6 M29.375,6.78125 C28.9167,6.78125 28.5521,6.92969 28.2813,7.22656 C28.0104,7.52344 27.849,7.9375 27.7969,8.46875 L30.7969,8.46875 C30.7969,7.96875 30.6823,7.5625 30.4531,7.25 C30.224,6.9375 29.8646,6.78125 29.375,6.78125 M36.3594,4.14063 L33.4375,12 L32.4844,12 L35.4063,4.14063 L36.3594,4.14063 M40.1875,6 C40.9167,6 41.5026,6.2526 41.9453,6.75781 C42.388,7.26302 42.6094,8.02604 42.6094,9.04688 C42.6094,10.0469 42.388,10.8073 41.9453,11.3281 C41.5026,11.849 40.9167,12.1094 40.1875,12.1094 C39.7292,12.1094 39.3516,12.0234 39.0547,11.8516 C38.7578,11.6797 38.526,11.4792 38.3594,11.25 L38.2969,11.25 C38.3073,11.375 38.3203,11.5339 38.3359,11.7266 C38.3516,11.9193 38.3594,12.0833 38.3594,12.2188 L38.3594,14.6406 L37.3906,14.6406 L37.3906,6.10938 L38.1875,6.10938 L38.3125,6.90625 L38.3594,6.90625 C38.5365,6.64583 38.7682,6.42969 39.0547,6.25781 C39.3411,6.08594 39.7188,6 40.1875,6 M40.0156,6.8125 C39.4115,6.8125 38.987,6.97917 38.7422,7.3125 C38.4974,7.64583 38.3698,8.16146 38.3594,8.85938 L38.3594,9.04688 C38.3594,9.76563 38.4792,10.3229 38.7188,10.7188 C38.9583,11.1146 39.401,11.3125 40.0469,11.3125 C40.401,11.3125 40.6927,11.2135 40.9219,11.0156 C41.151,10.8177 41.3229,10.5469 41.4375,10.2031 C41.5521,9.85938 41.6094,9.46875 41.6094,9.03125 C41.6094,8.35417 41.4792,7.8151 41.2188,7.41406 C40.9583,7.01302 40.5573,6.8125 40.0156,6.8125 M49.2656,9.04688 C49.2656,10.0156 49.0182,10.7682 48.5234,11.3047 C48.0286,11.8411 47.3594,12.1094 46.5156,12.1094 C45.9948,12.1094 45.5313,11.9896 45.125,11.75 C44.7188,11.5104 44.3984,11.1615 44.1641,10.7031 C43.9297,10.2448 43.8125,9.69271 43.8125,9.04688 C43.8125,8.06771 44.0573,7.3151 44.5469,6.78906 C45.0365,6.26302 45.7031,6 46.5469,6 C47.0781,6 47.5495,6.11719 47.9609,6.35156 C48.3724,6.58594 48.6927,6.92969 48.9219,7.38281 C49.151,7.83594 49.2656,8.39063 49.2656,9.04688 M44.8125,9.04688 C44.8125,9.73438 44.9505,10.2839 45.2266,10.6953 C45.5026,11.1068 45.9375,11.3125 46.5313,11.3125 C47.125,11.3125 47.5625,11.1068 47.8438,10.6953 C48.125,10.2839 48.2656,9.73438 48.2656,9.04688 C48.2656,8.34896 48.125,7.80208 47.8438,7.40625 C47.5625,7.01042 47.125,6.8125 46.5313,6.8125 C45.9271,6.8125 45.4896,7.01042 45.2188,7.40625 C44.9479,7.80208 44.8125,8.34896 44.8125,9.04688 M54.625,10.375 C54.625,10.9479 54.4115,11.3802 53.9844,11.6719 C53.5573,11.9635 52.9844,12.1094 52.2656,12.1094 C51.849,12.1094 51.4922,12.0755 51.1953,12.0078 C50.8984,11.9401 50.6406,11.849 50.4219,11.7344 L50.4219,10.8594 C50.651,10.974 50.9323,11.0807 51.2656,11.1797 C51.599,11.2786 51.9375,11.3281 52.2813,11.3281 C52.7708,11.3281 53.1276,11.25 53.3516,11.0938 C53.5755,10.9375 53.6875,10.724 53.6875,10.4531 C53.6875,10.3073 53.6458,10.1771 53.5625,10.0625 C53.4792,9.94792 53.3333,9.83073 53.125,9.71094 C52.9167,9.59115 52.6198,9.45833 52.2344,9.3125 C51.849,9.16667 51.5208,9.02083 51.25,8.875 C50.9792,8.72917 50.7708,8.55469 50.625,8.35156 C50.4792,8.14844 50.4063,7.88542 50.4063,7.5625 C50.4063,7.0625 50.6094,6.67708 51.0156,6.40625 C51.4219,6.13542 51.9531,6 52.6094,6 C52.974,6 53.3125,6.03385 53.625,6.10156 C53.9375,6.16927 54.2292,6.26563 54.5,6.39063 L54.1719,7.15625 C53.9219,7.05208 53.6615,6.96354 53.3906,6.89063 C53.1198,6.81771 52.8385,6.78125 52.5469,6.78125 C52.151,6.78125 51.849,6.84635 51.6406,6.97656 C51.4323,7.10677 51.3281,7.28125 51.3281,7.5 C51.3281,7.66667 51.375,7.80469 51.4688,7.91406 C51.5625,8.02344 51.7214,8.13281 51.9453,8.24219 C52.1693,8.35156 52.4688,8.47917 52.8438,8.625 C53.2188,8.76042 53.5391,8.90104 53.8047,9.04688 C54.0703,9.19271 54.2734,9.3724 54.4141,9.58594 C54.5547,9.79948 54.625,10.0625 54.625,10.375 M58.3281,6 C58.8281,6 59.2604,6.10938 59.625,6.32813 C59.9896,6.54688 60.2682,6.85677 60.4609,7.25781 C60.6536,7.65885 60.75,8.125 60.75,8.65625 L60.75,9.23438 L56.7188,9.23438 C56.7292,9.90104 56.8984,10.4089 57.2266,10.7578 C57.5547,11.1068 58.0104,11.2813 58.5938,11.2813 C58.9688,11.2813 59.3021,11.2474 59.5938,11.1797 C59.8854,11.112 60.1823,11.0104 60.4844,10.875 L60.4844,11.7188 C60.1823,11.8542 59.8854,11.9531 59.5938,12.0156 C59.3021,12.0781 58.9531,12.1094 58.5469,12.1094 C57.9948,12.1094 57.5026,11.9948 57.0703,11.7656 C56.638,11.5365 56.3047,11.1979 56.0703,10.75 C55.8359,10.3021 55.7188,9.75 55.7188,9.09375 C55.7188,8.44792 55.8255,7.89323 56.0391,7.42969 C56.2526,6.96615 56.5573,6.61198 56.9531,6.36719 C57.349,6.1224 57.8073,6 58.3281,6 M58.3125,6.78125 C57.8542,6.78125 57.4896,6.92969 57.2188,7.22656 C56.9479,7.52344 56.7865,7.9375 56.7344,8.46875 L59.7344,8.46875 C59.7344,7.96875 59.6198,7.5625 59.3906,7.25 C59.1615,6.9375 58.8021,6.78125 58.3125,6.78125 "/>
</g>

<g fill="none" stroke="#000000" stroke-opacity="1" stroke-width="1" stroke-linecap="square" stroke-linejoin="bevel" transform="matrix(2,0,0,2,79.6875,191)"
font-family="sans" font-size="11" font-weight="100" font-style="normal" 
>
</g>

<g fill="none" stroke="#000000" stroke-opacity="1" stroke-width="1" stroke-linecap="square" stroke-linejoin="bevel" transform="matrix(2,0,0,2,79.6875,191)"
font-family="Ubuntu Sans" font-size="11" font-weight="400" font-style="normal" 
>
</g>

<g fill="none" stroke="#000000" stroke-opacity="1" stroke-width="1" stroke-linecap="square" stroke-linejoin="bevel" transform="matrix(2,0,0,2,-15,275)"
font-family="Ubuntu Sans" font-size="11" font-weight="400" font-style="normal" 
>
</g>

<g fill="none" stroke="#000000" stroke-opacity="1" stroke-width="1" stroke-linecap="square" stroke-linejoin="bevel" transform="matrix(2,0,0,2,-15,275)"
font-family="Ubuntu Sans" font-size="11" font-weight="400" font-style="normal" 
>
</g>

<g fill="none" stroke="#000000" stroke-opacity="1" stroke-width="1" stroke-linecap="square" stroke-linejoin="bevel" transform="matrix(2,0,0,2,-15,275)"
font-family="Ubuntu Sans" font-size="11" font-weight="400" font-style="normal" 
>
</g>

<g fill="none" stroke="#000000" stroke-opacity="1" stroke-width="1" stroke-linecap="square" stroke-linejoin="round" transform="matrix(2,0,0,2,-15,275)"
font-family="Ubuntu Sans" font-size="11" font-weight="400" font-style="normal" 
>
<rect x="16.5008" y="-105.5" width="122.998" height="35"/>
</g>

<g fill="none" stroke="#000000" stroke-opacity="1" stroke-width="1" stroke-linecap="square" stroke-linejoin="bevel" transform="matrix(2,0,0,2,-15,275)"
font-family="Ubuntu Sans" font-size="11" font-weight="400" font-style="normal" 
>
</g>

<g fill="none" stroke="#000000" stroke-opacity="1" stroke-width="1" stroke-linecap="square" stroke-linejoin="bevel" transform="matrix(2,0,0,2,62.7656,83)"
font-family="Ubuntu Sans" font-size="11" font-weight="400" font-style="normal" 
>
</g>

<g fill="none" stroke="#000000" stroke-opacity="1" stroke-width="1" stroke-linecap="square" stroke-linejoin="bevel" transform="matrix(2,0,0,2,62.7656,83)"
font-family="sans" font-size="11" font-weight="100" font-style="normal" 
>
</g>

<g fill="#000000" fill-opacity="1" stroke="#000000" stroke-opacity="1" stroke-width="1" stroke-linecap="square" stroke-linejoin="round" transform="matrix(2,0,0,2,62.7656,83)"
font-family="sans" font-size="11" font-weight="100" font-style="normal" 
>
<path vector-effect="none" fill-rule="nonzero" d="M3.98438,4.14063 L1.0625,12 L0.109375,12 L3.03125,4.14063 L3.98438,4.14063 M6.98438,11.3125 C7.13021,11.3125 7.28125,11.2995 7.4375,11.2734 C7.59375,11.2474 7.71875,11.224 7.8125,11.2031 L7.8125,11.9375 C7.70833,11.9896 7.5599,12.0313 7.36719,12.0625 C7.17448,12.0938 6.98958,12.1094 6.8125,12.1094 C6.51042,12.1094 6.22917,12.0573 5.96875,11.9531 C5.70833,11.849 5.4974,11.6641 5.33594,11.3984 C5.17448,11.1328 5.09375,10.7604 5.09375,10.2813 L5.09375,6.84375 L4.25,6.84375 L4.25,6.39063 L5.09375,6 L5.48438,4.75 L6.0625,4.75 L6.0625,6.10938 L7.76563,6.10938 L7.76563,6.84375 L6.0625,6.84375 L6.0625,10.2656 C6.0625,10.6198 6.14844,10.8828 6.32031,11.0547 C6.49219,11.2266 6.71354,11.3125 6.98438,11.3125 M13.9063,6.10938 L13.9063,12 L13.125,12 L12.9688,11.2188 L12.9375,11.2188 C12.7396,11.5313 12.474,11.7578 12.1406,11.8984 C11.8073,12.0391 11.4479,12.1094 11.0625,12.1094 C10.3542,12.1094 9.82031,11.9401 9.46094,11.6016 C9.10156,11.263 8.92188,10.7188 8.92188,9.96875 L8.92188,6.10938 L9.89063,6.10938 L9.89063,9.90625 C9.89063,10.8438 10.3281,11.3125 11.2031,11.3125 C11.8594,11.3125 12.3125,11.1276 12.5625,10.7578 C12.8125,10.388 12.9375,9.85938 12.9375,9.17188 L12.9375,6.10938 L13.9063,6.10938 M18.5313,6 C18.6354,6 18.7526,6.00521 18.8828,6.01563 C19.013,6.02604 19.125,6.04167 19.2188,6.0625 L19.0938,6.95313 C19,6.93229 18.8984,6.91406 18.7891,6.89844 C18.6797,6.88281 18.5729,6.875 18.4688,6.875 C18.1667,6.875 17.8828,6.95833 17.6172,7.125 C17.3516,7.29167 17.1406,7.52344 16.9844,7.82031 C16.8281,8.11719 16.75,8.46354 16.75,8.85938 L16.75,12 L15.7813,12 L15.7813,6.10938 L16.5781,6.10938 L16.6875,7.1875 L16.7188,7.1875 C16.9167,6.86458 17.1641,6.58594 17.4609,6.35156 C17.7578,6.11719 18.1146,6 18.5313,6 M22.2813,11.3125 C22.4271,11.3125 22.5781,11.2995 22.7344,11.2734 C22.8906,11.2474 23.0156,11.224 23.1094,11.2031 L23.1094,11.9375 C23.0052,11.9896 22.8568,12.0313 22.6641,12.0625 C22.4714,12.0938 22.2865,12.1094 22.1094,12.1094 C21.8073,12.1094 21.526,12.0573 21.2656,11.9531 C21.0052,11.849 20.7943,11.6641 20.6328,11.3984 C20.4714,11.1328 20.3906,10.7604 20.3906,10.2813 L20.3906,6.84375 L19.5469,6.84375 L19.5469,6.39063 L20.3906,6 L20.7813,4.75 L21.3594,4.75 L21.3594,6.10938 L23.0625,6.10938 L23.0625,6.84375 L21.3594,6.84375 L21.3594,10.2656 C21.3594,10.6198 21.4453,10.8828 21.6172,11.0547 C21.7891,11.2266 22.0104,11.3125 22.2813,11.3125 M25.25,12 L24.2813,12 L24.2813,3.64063 L25.25,3.64063 L25.25,12 M29.3906,6 C29.8906,6 30.3229,6.10938 30.6875,6.32813 C31.0521,6.54688 31.3307,6.85677 31.5234,7.25781 C31.7161,7.65885 31.8125,8.125 31.8125,8.65625 L31.8125,9.23438 L27.7813,9.23438 C27.7917,9.90104 27.9609,10.4089 28.2891,10.7578 C28.6172,11.1068 29.0729,11.2813 29.6563,11.2813 C30.0313,11.2813 30.3646,11.2474 30.6563,11.1797 C30.9479,11.112 31.2448,11.0104 31.5469,10.875 L31.5469,11.7188 C31.2448,11.8542 30.9479,11.9531 30.6563,12.0156 C30.3646,12.0781 30.0156,12.1094 29.6094,12.1094 C29.0573,12.1094 28.5651,11.9948 28.1328,11.7656 C27.7005,11.5365 27.3672,11.1979 27.1328,10.75 C26.8984,10.3021 26.7813,9.75 26.7813,9.09375 C26.7813,8.44792 26.888,7.89323 27.1016,7.42969 C27.3151,6.96615 27.6198,6.61198 28.0156,6.36719 C28.4115,6.1224 28.8698,6 29.3906,6 M29.375,6.78125 C28.9167,6.78125 28.5521,6.92969 28.2813,7.22656 C28.0104,7.52344 27.849,7.9375 27.7969,8.46875 L30.7969,8.46875 C30.7969,7.96875 30.6823,7.5625 30.4531,7.25 C30.224,6.9375 29.8646,6.78125 29.375,6.78125 M36.3594,4.14063 L33.4375,12 L32.4844,12 L35.4063,4.14063 L36.3594,4.14063 M39.75,12.1094 C39.2292,12.1094 38.7656,12.0026 38.3594,11.7891 C37.9531,11.5755 37.6354,11.2448 37.4063,10.7969 C37.1771,10.349 37.0625,9.77604 37.0625,9.07813 C37.0625,8.35938 37.1823,7.77083 37.4219,7.3125 C37.6615,6.85417 37.9896,6.52083 38.4063,6.3125 C38.8229,6.10417 39.2917,6 39.8125,6 C40.1146,6 40.4063,6.03125 40.6875,6.09375 C40.9688,6.15625 41.1979,6.22917 41.375,6.3125 L41.0781,7.10938 C40.901,7.04688 40.6953,6.98698 40.4609,6.92969 C40.2266,6.8724 40.0052,6.84375 39.7969,6.84375 C38.6406,6.84375 38.0625,7.58854 38.0625,9.07813 C38.0625,9.78646 38.2031,10.3307 38.4844,10.7109 C38.7656,11.0911 39.1875,11.2813 39.75,11.2813 C40.0729,11.2813 40.3568,11.2474 40.6016,11.1797 C40.8464,11.112 41.0677,11.0313 41.2656,10.9375 L41.2656,11.7969 C41.0677,11.8906 40.8516,11.9661 40.6172,12.0234 C40.3828,12.0807 40.0938,12.1094 39.75,12.1094 M49.125,6 C49.7917,6 50.2891,6.16927 50.6172,6.50781 C50.9453,6.84635 51.1094,7.39583 51.1094,8.15625 L51.1094,12 L50.1563,12 L50.1563,8.20313 C50.1563,7.27604 49.7552,6.8125 48.9531,6.8125 C48.3802,6.8125 47.9714,6.97656 47.7266,7.30469 C47.4818,7.63281 47.3594,8.11458 47.3594,8.75 L47.3594,12 L46.4063,12 L46.4063,8.20313 C46.4063,7.27604 46,6.8125 45.1875,6.8125 C44.5938,6.8125 44.1849,6.99479 43.9609,7.35938 C43.737,7.72396 43.625,8.25 43.625,8.9375 L43.625,12 L42.6563,12 L42.6563,6.10938 L43.4375,6.10938 L43.5781,6.90625 L43.6406,6.90625 C43.8177,6.59375 44.0625,6.36458 44.375,6.21875 C44.6875,6.07292 45.0208,6 45.375,6 C46.2917,6 46.8906,6.32813 47.1719,6.98438 L47.2344,6.98438 C47.4323,6.65104 47.7005,6.40365 48.0391,6.24219 C48.3776,6.08073 48.7396,6 49.125,6 M55.0313,12.1094 C54.2917,12.1094 53.7031,11.8542 53.2656,11.3438 C52.8281,10.8333 52.6094,10.0729 52.6094,9.0625 C52.6094,8.05208 52.8307,7.28906 53.2734,6.77344 C53.7161,6.25781 54.3021,6 55.0313,6 C55.4896,6 55.8646,6.08333 56.1563,6.25 C56.4479,6.41667 56.6823,6.61979 56.8594,6.85938 L56.9219,6.85938 C56.9219,6.76563 56.9115,6.625 56.8906,6.4375 C56.8698,6.25 56.8594,6.10417 56.8594,6 L56.8594,3.64063 L57.8281,3.64063 L57.8281,12 L57.0469,12 L56.9063,11.2031 L56.8594,11.2031 C56.6823,11.4531 56.4479,11.6667 56.1563,11.8438 C55.8646,12.0208 55.4896,12.1094 55.0313,12.1094 M55.1719,11.3125 C55.7969,11.3125 56.237,11.1406 56.4922,10.7969 C56.7474,10.4531 56.875,9.9375 56.875,9.25 L56.875,9.07813 C56.875,8.33854 56.7526,7.77344 56.5078,7.38281 C56.263,6.99219 55.8177,6.79688 55.1719,6.79688 C54.651,6.79688 54.2604,7.00521 54,7.42188 C53.7396,7.83854 53.6094,8.39063 53.6094,9.07813 C53.6094,9.78646 53.7396,10.3359 54,10.7266 C54.2604,11.1172 54.651,11.3125 55.1719,11.3125 M63.6563,13.6875 L58.7344,13.6875 L58.7344,12.9844 L63.6563,12.9844 L63.6563,13.6875 M65.8594,12 L63.625,6.10938 L64.6563,6.10938 L65.9063,9.57813 C65.9688,9.74479 66.0339,9.92708 66.1016,10.125 C66.1693,10.3229 66.2292,10.5104 66.2813,10.6875 C66.3333,10.8646 66.3698,11.0156 66.3906,11.1406 L66.4375,11.1406 C66.4583,11.0156 66.4974,10.862 66.5547,10.6797 C66.612,10.4974 66.6745,10.3073 66.7422,10.1094 C66.8099,9.91146 66.8698,9.73438 66.9219,9.57813 L68.1719,6.10938 L69.2188,6.10938 L66.9688,12 L65.8594,12 M72.4219,6 C72.9219,6 73.3542,6.10938 73.7188,6.32813 C74.0833,6.54688 74.362,6.85677 74.5547,7.25781 C74.7474,7.65885 74.8438,8.125 74.8438,8.65625 L74.8438,9.23438 L70.8125,9.23438 C70.8229,9.90104 70.9922,10.4089 71.3203,10.7578 C71.6484,11.1068 72.1042,11.2813 72.6875,11.2813 C73.0625,11.2813 73.3958,11.2474 73.6875,11.1797 C73.9792,11.112 74.276,11.0104 74.5781,10.875 L74.5781,11.7188 C74.276,11.8542 73.9792,11.9531 73.6875,12.0156 C73.3958,12.0781 73.0469,12.1094 72.6406,12.1094 C72.0885,12.1094 71.5964,11.9948 71.1641,11.7656 C70.7318,11.5365 70.3984,11.1979 70.1641,10.75 C69.9297,10.3021 69.8125,9.75 69.8125,9.09375 C69.8125,8.44792 69.9193,7.89323 70.1328,7.42969 C70.3464,6.96615 70.651,6.61198 71.0469,6.36719 C71.4427,6.1224 71.901,6 72.4219,6 M72.4063,6.78125 C71.9479,6.78125 71.5833,6.92969 71.3125,7.22656 C71.0417,7.52344 70.8802,7.9375 70.8281,8.46875 L73.8281,8.46875 C73.8281,7.96875 73.7135,7.5625 73.4844,7.25 C73.2552,6.9375 72.8958,6.78125 72.4063,6.78125 M77.3125,12 L76.3438,12 L76.3438,3.64063 L77.3125,3.64063 L77.3125,12"/>
</g>

<g fill="none" stroke="#000000" stroke-opacity="1" stroke-width="1" stroke-linecap="square" stroke-linejoin="bevel" transform="matrix(2,0,0,2,62.7656,83)"
font-family="sans" font-size="11" font-weight="100" font-style="normal" 
>
</g>

<g fill="none" stroke="#000000" stroke-opacity="1" stroke-width="1" stroke-linecap="square" stroke-linejoin="bevel" transform="matrix(2,0,0,2,62.7656,83)"
font-family="Ubuntu Sans" font-size="11" font-weight="400" font-style="normal" 
>
</g>

<g fill="none" stroke="#000000" stroke-opacity="1" stroke-width="1" stroke-linecap="square" stroke-linejoin="bevel" transform="matrix(2,0,0,2,-15,275)"
font-family="Ubuntu Sans" font-size="11" font-weight="400" font-style="normal" 
>
</g>

<g fill="none" stroke="#000000" stroke-opacity="1" stroke-width="1" stroke-linecap="square" stroke-linejoin="bevel" transform="matrix(2,0,0,2,-15,275)"
font-family="Ubuntu Sans" font-size="11" font-weight="400" font-style="normal" 
>
</g>

<g fill="none" stroke="#000000" stroke-opacity="1" stroke-width="1" stroke-linecap="square" stroke-linejoin="bevel" transform="matrix(2,0,0,2,-15,275)"
font-family="Ubuntu Sans" font-size="11" font-weight="400" font-style="normal" 
>
</g>

<g fill="none" stroke="#000000" stroke-opacity="1" stroke-width="1" stroke-linecap="square" stroke-linejoin="round" transform="matrix(2,0,0,2,-15,275)"
font-family="Ubuntu Sans" font-size="11" font-weight="400" font-style="normal" 
>
<rect x="29" y="-51.5" width="98" height="35"/>
</g>

<g fill="none" stroke="#000000" stroke-opacity="1" stroke-width="1" stroke-linecap="square" stroke-linejoin="bevel" transform="matrix(2,0,0,2,-15,275)"
font-family="Ubuntu Sans" font-size="11" font-weight="400" font-style="normal" 
>
</g>

<g fill="none" stroke="#000000" stroke-opacity="1" stroke-width="1" stroke-linecap="square" stroke-linejoin="bevel" transform="matrix(2,0,0,2,79.6875,191)"
font-family="Ubuntu Sans" font-size="11" font-weight="400" font-style="normal" 
>
</g>

<g fill="none" stroke="#000000" stroke-opacity="1" stroke-width="1" stroke-linecap="square" stroke-linejoin="bevel" transform="matrix(2,0,0,2,79.6875,191)"
font-family="sans" font-size="11" font-weight="100" font-style="normal" 
>
</g>

<g fill="#000000" fill-opacity="1" stroke="#000000" stroke-opacity="1" stroke-width="1" stroke-linecap="square" stroke-linejoin="round" transform="matrix(2,0,0,2,79.6875,191)"
font-family="sans" font-size="11" font-weight="100" font-style="normal" 
>
<path vector-effect="none" fill-rule="nonzero" d="M3.98438,4.14063 L1.0625,12 L0.109375,12 L3.03125,4.14063 L3.98438,4.14063 M6.98438,11.3125 C7.13021,11.3125 7.28125,11.2995 7.4375,11.2734 C7.59375,11.2474 7.71875,11.224 7.8125,11.2031 L7.8125,11.9375 C7.70833,11.9896 7.5599,12.0313 7.36719,12.0625 C7.17448,12.0938 6.98958,12.1094 6.8125,12.1094 C6.51042,12.1094 6.22917,12.0573 5.96875,11.9531 C5.70833,11.849 5.4974,11.6641 5.33594,11.3984 C5.17448,11.1328 5.09375,10.7604 5.09375,10.2813 L5.09375,6.84375 L4.25,6.84375 L4.25,6.39063 L5.09375,6 L5.48438,4.75 L6.0625,4.75 L6.0625,6.10938 L7.76563,6.10938 L7.76563,6.84375 L6.0625,6.84375 L6.0625,10.2656 C6.0625,10.6198 6.14844,10.8828 6.32031,11.0547 C6.49219,11.2266 6.71354,11.3125 6.98438,11.3125 M13.9063,6.10938 L13.9063,12 L13.125,12 L12.9688,11.2188 L12.9375,11.2188 C12.7396,11.5313 12.474,11.7578 12.1406,11.8984 C11.8073,12.0391 11.4479,12.1094 11.0625,12.1094 C10.3542,12.1094 9.82031,11.9401 9.46094,11.6016 C9.10156,11.263 8.92188,10.7188 8.92188,9.96875 L8.92188,6.10938 L9.89063,6.10938 L9.89063,9.90625 C9.89063,10.8438 10.3281,11.3125 11.2031,11.3125 C11.8594,11.3125 12.3125,11.1276 12.5625,10.7578 C12.8125,10.388 12.9375,9.85938 12.9375,9.17188 L12.9375,6.10938 L13.9063,6.10938 M18.5313,6 C18.6354,6 18.7526,6.00521 18.8828,6.01563 C19.013,6.02604 19.125,6.04167 19.2188,6.0625 L19.0938,6.95313 C19,6.93229 18.8984,6.91406 18.7891,6.89844 C18.6797,6.88281 18.5729,6.875 18.4688,6.875 C18.1667,6.875 17.8828,6.95833 17.6172,7.125 C17.3516,7.29167 17.1406,7.52344 16.9844,7.82031 C16.8281,8.11719 16.75,8.46354 16.75,8.85938 L16.75,12 L15.7813,12 L15.7813,6.10938 L16.5781,6.10938 L16.6875,7.1875 L16.7188,7.1875 C16.9167,6.86458 17.1641,6.58594 17.4609,6.35156 C17.7578,6.11719 18.1146,6 18.5313,6 M22.2813,11.3125 C22.4271,11.3125 22.5781,11.2995 22.7344,11.2734 C22.8906,11.2474 23.0156,11.224 23.1094,11.2031 L23.1094,11.9375 C23.0052,11.9896 22.8568,12.0313 22.6641,12.0625 C22.4714,12.0938 22.2865,12.1094 22.1094,12.1094 C21.8073,12.1094 21.526,12.0573 21.2656,11.9531 C21.0052,11.849 20.7943,11.6641 20.6328,11.3984 C20.4714,11.1328 20.3906,10.7604 20.3906,10.2813 L20.3906,6.84375 L19.5469,6.84375 L19.5469,6.39063 L20.3906,6 L20.7813,4.75 L21.3594,4.75 L21.3594,6.10938 L23.0625,6.10938 L23.0625,6.84375 L21.3594,6.84375 L21.3594,10.2656 C21.3594,10.6198 21.4453,10.8828 21.6172,11.0547 C21.7891,11.2266 22.0104,11.3125 22.2813,11.3125 M25.25,12 L24.2813,12 L24.2813,3.64063 L25.25,3.64063 L25.25,12 M29.3906,6 C29.8906,6 30.3229,6.10938 30.6875,6.32813 C31.0521,6.54688 31.3307,6.85677 31.5234,7.25781 C31.7161,7.65885 31.8125,8.125 31.8125,8.65625 L31.8125,9.23438 L27.7813,9.23438 C27.7917,9.90104 27.9609,10.4089 28.2891,10.7578 C28.6172,11.1068 29.0729,11.2813 29.6563,11.2813 C30.0313,11.2813 30.3646,11.2474 30.6563,11.1797 C30.9479,11.112 31.2448,11.0104 31.5469,10.875 L31.5469,11.7188 C31.2448,11.8542 30.9479,11.9531 30.6563,12.0156 C30.3646,12.0781 30.0156,12.1094 29.6094,12.1094 C29.0573,12.1094 28.5651,11.9948 28.1328,11.7656 C27.7005,11.5365 27.3672,11.1979 27.1328,10.75 C26.8984,10.3021 26.7813,9.75 26.7813,9.09375 C26.7813,8.44792 26.888,7.89323 27.1016,7.42969 C27.3151,6.96615 27.6198,6.61198 28.0156,6.36719 C28.4115,6.1224 28.8698,6 29.3906,6 M29.375,6.78125 C28.9167,6.78125 28.5521,6.92969 28.2813,7.22656 C28.0104,7.52344 27.849,7.9375 27.7969,8.46875 L30.7969,8.46875 C30.7969,7.96875 30.6823,7.5625 30.4531,7.25 C30.224,6.9375 29.8646,6.78125 29.375,6.78125 M36.3594,4.14063 L33.4375,12 L32.4844,12 L35.4063,4.14063 L36.3594,4.14063 M40.1875,6 C40.9167,6 41.5026,6.2526 41.9453,6.75781 C42.388,7.26302 42.6094,8.02604 42.6094,9.04688 C42.6094,10.0469 42.388,10.8073 41.9453,11.3281 C41.5026,11.849 40.9167,12.1094 40.1875,12.1094 C39.7292,12.1094 39.3516,12.0234 39.0547,11.8516 C38.7578,11.6797 38.526,11.4792 38.3594,11.25 L38.2969,11.25 C38.3073,11.375 38.3203,11.5339 38.3359,11.7266 C38.3516,11.9193 38.3594,12.0833 38.3594,12.2188 L38.3594,14.6406 L37.3906,14.6406 L37.3906,6.10938 L38.1875,6.10938 L38.3125,6.90625 L38.3594,6.90625 C38.5365,6.64583 38.7682,6.42969 39.0547,6.25781 C39.3411,6.08594 39.7188,6 40.1875,6 M40.0156,6.8125 C39.4115,6.8125 38.987,6.97917 38.7422,7.3125 C38.4974,7.64583 38.3698,8.16146 38.3594,8.85938 L38.3594,9.04688 C38.3594,9.76563 38.4792,10.3229 38.7188,10.7188 C38.9583,11.1146 39.401,11.3125 40.0469,11.3125 C40.401,11.3125 40.6927,11.2135 40.9219,11.0156 C41.151,10.8177 41.3229,10.5469 41.4375,10.2031 C41.5521,9.85938 41.6094,9.46875 41.6094,9.03125 C41.6094,8.35417 41.4792,7.8151 41.2188,7.41406 C40.9583,7.01302 40.5573,6.8125 40.0156,6.8125 M49.2656,9.04688 C49.2656,10.0156 49.0182,10.7682 48.5234,11.3047 C48.0286,11.8411 47.3594,12.1094 46.5156,12.1094 C45.9948,12.1094 45.5313,11.9896 45.125,11.75 C44.7188,11.5104 44.3984,11.1615 44.1641,10.7031 C43.9297,10.2448 43.8125,9.69271 43.8125,9.04688 C43.8125,8.06771 44.0573,7.3151 44.5469,6.78906 C45.0365,6.26302 45.7031,6 46.5469,6 C47.0781,6 47.5495,6.11719 47.9609,6.35156 C48.3724,6.58594 48.6927,6.92969 48.9219,7.38281 C49.151,7.83594 49.2656,8.39063 49.2656,9.04688 M44.8125,9.04688 C44.8125,9.73438 44.9505,10.2839 45.2266,10.6953 C45.5026,11.1068 45.9375,11.3125 46.5313,11.3125 C47.125,11.3125 47.5625,11.1068 47.8438,10.6953 C48.125,10.2839 48.2656,9.73438 48.2656,9.04688 C48.2656,8.34896 48.125,7.80208 47.8438,7.40625 C47.5625,7.01042 47.125,6.8125 46.5313,6.8125 C45.9271,6.8125 45.4896,7.01042 45.2188,7.40625 C44.9479,7.80208 44.8125,8.34896 44.8125,9.04688 M54.625,10.375 C54.625,10.9479 54.4115,11.3802 53.9844,11.6719 C53.5573,11.9635 52.9844,12.1094 52.2656,12.1094 C51.849,12.1094 51.4922,12.0755 51.1953,12.0078 C50.8984,11.9401 50.6406,11.849 50.4219,11.7344 L50.4219,10.8594 C50.651,10.974 50.9323,11.0807 51.2656,11.1797 C51.599,11.2786 51.9375,11.3281 52.2813,11.3281 C52.7708,11.3281 53.1276,11.25 53.3516,11.0938 C53.5755,10.9375 53.6875,10.724 53.6875,10.4531 C53.6875,10.3073 53.6458,10.1771 53.5625,10.0625 C53.4792,9.94792 53.3333,9.83073 53.125,9.71094 C52.9167,9.59115 52.6198,9.45833 52.2344,9.3125 C51.849,9.16667 51.5208,9.02083 51.25,8.875 C50.9792,8.72917 50.7708,8.55469 50.625,8.35156 C50.4792,8.14844 50.4063,7.88542 50.4063,7.5625 C50.4063,7.0625 50.6094,6.67708 51.0156,6.40625 C51.4219,6.13542 51.9531,6 52.6094,6 C52.974,6 53.3125,6.03385 53.625,6.10156 C53.9375,6.16927 54.2292,6.26563 54.5,6.39063 L54.1719,7.15625 C53.9219,7.05208 53.6615,6.96354 53.3906,6.89063 C53.1198,6.81771 52.8385,6.78125 52.5469,6.78125 C52.151,6.78125 51.849,6.84635 51.6406,6.97656 C51.4323,7.10677 51.3281,7.28125 51.3281,7.5 C51.3281,7.66667 51.375,7.80469 51.4688,7.91406 C51.5625,8.02344 51.7214,8.13281 51.9453,8.24219 C52.1693,8.35156 52.4688,8.47917 52.8438,8.625 C53.2188,8.76042 53.5391,8.90104 53.8047,9.04688 C54.0703,9.19271 54.2734,9.3724 54.4141,9.58594 C54.5547,9.79948 54.625,10.0625 54.625,10.375 M58.3281,6 C58.8281,6 59.2604,6.10938 59.625,6.32813 C59.9896,6.54688 60.2682,6.85677 60.4609,7.25781 C60.6536,7.65885 60.75,8.125 60.75,8.65625 L60.75,9.23438 L56.7188,9.23438 C56.7292,9.90104 56.8984,10.4089 57.2266,10.7578 C57.5547,11.1068 58.0104,11.2813 58.5938,11.2813 C58.9688,11.2813 59.3021,11.2474 59.5938,11.1797 C59.8854,11.112 60.1823,11.0104 60.4844,10.875 L60.4844,11.7188 C60.1823,11.8542 59.8854,11.9531 59.5938,12.0156 C59.3021,12.0781 58.9531,12.1094 58.5469,12.1094 C57.9948,12.1094 57.5026,11.9948 57.0703,11.7656 C56.638,11.5365 56.3047,11.1979 56.0703,10.75 C55.8359,10.3021 55.7188,9.75 55.7188,9.09375 C55.7188,8.44792 55.8255,7.89323 56.0391,7.42969 C56.2526,6.96615 56.5573,6.61198 56.9531,6.36719 C57.349,6.1224 57.8073,6 58.3281,6 M58.3125,6.78125 C57.8542,6.78125 57.4896,6.92969 57.2188,7.22656 C56.9479,7.52344 56.7865,7.9375 56.7344,8.46875 L59.7344,8.46875 C59.7344,7.96875 59.6198,7.5625 59.3906,7.25 C59.1615,6.9375 58.8021,6.78125 58.3125,6.78125 "/>
</g>

<g fill="none" stroke="#000000" stroke-opacity="1" stroke-width="1" stroke-linecap="square" stroke-linejoin="bevel" transform="matrix(2,0,0,2,79.6875,191)"
font-family="sans" font-size="11" font-weight="100" font-style="normal" 
>
</g>

<g fill="none" stroke="#000000" stroke-opacity="1" stroke-width="1" stroke-linecap="square" stroke-linejoin="bevel" transform="matrix(2,0,0,2,79.6875,191)"
font-family="Ubuntu Sans" font-size="11" font-weight="400" font-style="normal" 
>
</g>

<g fill="none" stroke="#000000" stroke-opacity="1" stroke-width="1" stroke-linecap="square" stroke-linejoin="bevel" transform="matrix(2,0,0,2,-15,275)"
font-family="Ubuntu Sans" font-size="11" font-weight="400" font-style="normal" 
>
</g>

<g fill="none" stroke="#000000" stroke-opacity="1" stroke-width="1" stroke-linecap="square" stroke-linejoin="bevel" transform="matrix(2,0,0,2,-15,275)"
font-family="Ubuntu Sans" font-size="11" font-weight="400" font-style="normal" 
>
</g>

<g fill="none" stroke="#000000" stroke-opacity="1" stroke-width="1" stroke-linecap="square" stroke-linejoin="bevel" transform="matrix(2,0,0,2,-15,275)"
font-family="Ubuntu Sans" font-size="11" font-weight="400" font-style="normal" 
>
</g>

<g fill="none" stroke="#000000" stroke-opacity="1" stroke-width="1" stroke-linecap="square" stroke-linejoin="round" transform="matrix(2,0,0,2,-15,275)"
font-family="Ubuntu Sans" font-size="11" font-weight="400" font-style="normal" 
>
<ellipse cx="263.89" cy="-88" rx="56.0452" ry="17.5"/>
</g>

<g fill="none" stroke="#000000" stroke-opacity="1" stroke-width="1" stroke-linecap="square" stroke-linejoin="bevel" transform="matrix(2,0,0,2,-15,275)"
font-family="Ubuntu Sans" font-size="11" font-weight="400" font-style="normal" 
>
</g>

<g fill="none" stroke="#000000" stroke-opacity="1" stroke-width="1" stroke-linecap="square" stroke-linejoin="bevel" transform="matrix(2,0,0,2,462.03,83)"
font-family="Ubuntu Sans" font-size="11" font-weight="400" font-style="normal" 
>
</g>

<g fill="none" stroke="#000000" stroke-opacity="1" stroke-width="1" stroke-linecap="square" stroke-linejoin="bevel" transform="matrix(2,0,0,2,462.03,83)"
font-family="sans" font-size="11" font-weight="100" font-style="normal" 
>
</g>

<g fill="#000000" fill-opacity="1" stroke="#000000" stroke-opacity="1" stroke-width="1" stroke-linecap="square" stroke-linejoin="round" transform="matrix(2,0,0,2,462.03,83)"
font-family="sans" font-size="11" font-weight="100" font-style="normal" 
>
<path vector-effect="none" fill-rule="nonzero" d="M3.98438,4.14063 L1.0625,12 L0.109375,12 L3.03125,4.14063 L3.98438,4.14063 M6.98438,11.3125 C7.13021,11.3125 7.28125,11.2995 7.4375,11.2734 C7.59375,11.2474 7.71875,11.224 7.8125,11.2031 L7.8125,11.9375 C7.70833,11.9896 7.5599,12.0313 7.36719,12.0625 C7.17448,12.0938 6.98958,12.1094 6.8125,12.1094 C6.51042,12.1094 6.22917,12.0573 5.96875,11.9531 C5.70833,11.849 5.4974,11.6641 5.33594,11.3984 C5.17448,11.1328 5.09375,10.7604 5.09375,10.2813 L5.09375,6.84375 L4.25,6.84375 L4.25,6.39063 L5.09375,6 L5.48438,4.75 L6.0625,4.75 L6.0625,6.10938 L7.76563,6.10938 L7.76563,6.84375 L6.0625,6.84375 L6.0625,10.2656 C6.0625,10.6198 6.14844,10.8828 6.32031,11.0547 C6.49219,11.2266 6.71354,11.3125 6.98438,11.3125 M13.9063,6.10938 L13.9063,12 L13.125,12 L12.9688,11.2188 L12.9375,11.2188 C12.7396,11.5313 12.474,11.7578 12.1406,11.8984 C11.8073,12.0391 11.4479,12.1094 11.0625,12.1094 C10.3542,12.1094 9.82031,11.9401 9.46094,11.6016 C9.10156,11.263 8.92188,10.7188 8.92188,9.96875 L8.92188,6.10938 L9.89063,6.10938 L9.89063,9.90625 C9.89063,10.8438 10.3281,11.3125 11.2031,11.3125 C11.8594,11.3125 12.3125,11.1276 12.5625,10.7578 C12.8125,10.388 12.9375,9.85938 12.9375,9.17188 L12.9375,6.10938 L13.9063,6.10938 M18.5313,6 C18.6354,6 18.7526,6.00521 18.8828,6.01563 C19.013,6.02604 19.125,6.04167 19.2188,6.0625 L19.0938,6.95313 C19,6.93229 18.8984,6.91406 18.7891,6.89844 C18.6797,6.88281 18.5729,6.875 18.4688,6.875 C18.1667,6.875 17.8828,6.95833 17.6172,7.125 C17.3516,7.29167 17.1406,7.52344 16.9844,7.82031 C16.8281,8.11719 16.75,8.46354 16.75,8.85938 L16.75,12 L15.7813,12 L15.7813,6.10938 L16.5781,6.10938 L16.6875,7.1875 L16.7188,7.1875 C16.9167,6.86458 17.1641,6.58594 17.4609,6.35156 C17.7578,6.11719 18.1146,6 18.5313,6 M22.2813,11.3125 C22.4271,11.3125 22.5781,11.2995 22.7344,11.2734 C22.8906,11.2474 23.0156,11.224 23.1094,11.2031 L23.1094,11.9375 C23.0052,11.9896 22.8568,12.0313 22.6641,12.0625 C22.4714,12.0938 22.2865,12.1094 22.1094,12.1094 C21.8073,12.1094 21.526,12.0573 21.2656,11.9531 C21.0052,11.849 20.7943,11.6641 20.6328,11.3984 C20.4714,11.1328 20.3906,10.7604 20.3906,10.2813 L20.3906,6.84375 L19.5469,6.84375 L19.5469,6.39063 L20.3906,6 L20.7813,4.75 L21.3594,4.75 L21.3594,6.10938 L23.0625,6.10938 L23.0625,6.84375 L21.3594,6.84375 L21.3594,10.2656 C21.3594,10.6198 21.4453,10.8828 21.6172,11.0547 C21.7891,11.2266 22.0104,11.3125 22.2813,11.3125 M25.25,12 L24.2813,12 L24.2813,3.64063 L25.25,3.64063 L25.25,12 M29.3906,6 C29.8906,6 30.3229,6.10938 30.6875,6.32813 C31.0521,6.54688 31.3307,6.85677 31.5234,7.25781 C31.7161,7.65885 31.8125,8.125 31.8125,8.65625 L31.8125,9.23438 L27.7813,9.23438 C27.7917,9.90104 27.9609,10.4089 28.2891,10.7578 C28.6172,11.1068 29.0729,11.2813 29.6563,11.2813 C30.0313,11.2813 30.3646,11.2474 30.6563,11.1797 C30.9479,11.112 31.2448,11.0104 31.5469,10.875 L31.5469,11.7188 C31.2448,11.8542 30.9479,11.9531 30.6563,12.0156 C30.3646,12.0781 30.0156,12.1094 29.6094,12.1094 C29.0573,12.1094 28.5651,11.9948 28.1328,11.7656 C27.7005,11.5365 27.3672,11.1979 27.1328,10.75 C26.8984,10.3021 26.7813,9.75 26.7813,9.09375 C26.7813,8.44792 26.888,7.89323 27.1016,7.42969 C27.3151,6.96615 27.6198,6.61198 28.0156,6.36719 C28.4115,6.1224 28.8698,6 29.3906,6 M29.375,6.78125 C28.9167,6.78125 28.5521,6.92969 28.2813,7.22656 C28.0104,7.52344 27.849,7.9375 27.7969,8.46875 L30.7969,8.46875 C30.7969,7.96875 30.6823,7.5625 30.4531,7.25 C30.224,6.9375 29.8646,6.78125 29.375,6.78125 M37.1563,10.375 C37.1563,10.9479 36.9427,11.3802 36.5156,11.6719 C36.0885,11.9635 35.5156,12.1094 34.7969,12.1094 C34.3802,12.1094 34.0234,12.0755 33.7266,12.0078 C33.4297,11.9401 33.1719,11.849 32.9531,11.7344 L32.9531,10.8594 C33.1823,10.974 33.4635,11.0807 33.7969,11.1797 C34.1302,11.2786 34.4688,11.3281 34.8125,11.3281 C35.3021,11.3281 35.6589,11.25 35.8828,11.0938 C36.1068,10.9375 36.2188,10.724 36.2188,10.4531 C36.2188,10.3073 36.1771,10.1771 36.0938,10.0625 C36.0104,9.94792 35.8646,9.83073 35.6563,9.71094 C35.4479,9.59115 35.151,9.45833 34.7656,9.3125 C34.3802,9.16667 34.0521,9.02083 33.7813,8.875 C33.5104,8.72917 33.3021,8.55469 33.1563,8.35156 C33.0104,8.14844 32.9375,7.88542 32.9375,7.5625 C32.9375,7.0625 33.1406,6.67708 33.5469,6.40625 C33.9531,6.13542 34.4844,6 35.1406,6 C35.5052,6 35.8438,6.03385 36.1563,6.10156 C36.4688,6.16927 36.7604,6.26563 37.0313,6.39063 L36.7031,7.15625 C36.4531,7.05208 36.1927,6.96354 35.9219,6.89063 C35.651,6.81771 35.3698,6.78125 35.0781,6.78125 C34.6823,6.78125 34.3802,6.84635 34.1719,6.97656 C33.9635,7.10677 33.8594,7.28125 33.8594,7.5 C33.8594,7.66667 33.9063,7.80469 34,7.91406 C34.0938,8.02344 34.2526,8.13281 34.4766,8.24219 C34.7005,8.35156 35,8.47917 35.375,8.625 C35.75,8.76042 36.0703,8.90104 36.3359,9.04688 C36.6016,9.19271 36.8047,9.3724 36.9453,9.58594 C37.0859,9.79948 37.1563,10.0625 37.1563,10.375 M39.0781,3.89063 C39.224,3.89063 39.3516,3.9401 39.4609,4.03906 C39.5703,4.13802 39.625,4.29688 39.625,4.51563 C39.625,4.71354 39.5703,4.86458 39.4609,4.96875 C39.3516,5.07292 39.224,5.125 39.0781,5.125 C38.9115,5.125 38.7734,5.07292 38.6641,4.96875 C38.5547,4.86458 38.5,4.71354 38.5,4.51563 C38.5,4.29688 38.5547,4.13802 38.6641,4.03906 C38.7734,3.9401 38.9115,3.89063 39.0781,3.89063 M39.5469,6.10938 L39.5469,12 L38.5781,12 L38.5781,6.10938 L39.5469,6.10938 M47.875,6 C48.5417,6 49.0391,6.16927 49.3672,6.50781 C49.6953,6.84635 49.8594,7.39583 49.8594,8.15625 L49.8594,12 L48.9063,12 L48.9063,8.20313 C48.9063,7.27604 48.5052,6.8125 47.7031,6.8125 C47.1302,6.8125 46.7214,6.97656 46.4766,7.30469 C46.2318,7.63281 46.1094,8.11458 46.1094,8.75 L46.1094,12 L45.1563,12 L45.1563,8.20313 C45.1563,7.27604 44.75,6.8125 43.9375,6.8125 C43.3438,6.8125 42.9349,6.99479 42.7109,7.35938 C42.487,7.72396 42.375,8.25 42.375,8.9375 L42.375,12 L41.4063,12 L41.4063,6.10938 L42.1875,6.10938 L42.3281,6.90625 L42.3906,6.90625 C42.5677,6.59375 42.8125,6.36458 43.125,6.21875 C43.4375,6.07292 43.7708,6 44.125,6 C45.0417,6 45.6406,6.32813 45.9219,6.98438 L45.9844,6.98438 C46.1823,6.65104 46.4505,6.40365 46.7891,6.24219 C47.1276,6.08073 47.4896,6 47.875,6 "/>
</g>

<g fill="none" stroke="#000000" stroke-opacity="1" stroke-width="1" stroke-linecap="square" stroke-linejoin="bevel" transform="matrix(2,0,0,2,462.03,83)"
font-family="sans" font-size="11" font-weight="100" font-style="normal" 
>
</g>

<g fill="none" stroke="#000000" stroke-opacity="1" stroke-width="1" stroke-linecap="square" stroke-linejoin="bevel" transform="matrix(2,0,0,2,462.03,83)"
font-family="Ubuntu Sans" font-size="11" font-weight="400" font-style="normal" 
>
</g>

<g fill="none" stroke="#000000" stroke-opacity="1" stroke-width="1" stroke-linecap="square" stroke-linejoin="bevel" transform="matrix(2,0,0,2,-15,275)"
font-family="Ubuntu Sans" font-size="11" font-weight="400" font-style="normal" 
>
</g>

<g fill="none" stroke="#000000" stroke-opacity="1" stroke-width="1" stroke-linecap="square" stroke-linejoin="bevel" transform="matrix(2,0,0,2,-15,275)"
font-family="Ubuntu Sans" font-size="11" font-weight="400" font-style="normal" 
>
</g>

<g fill="none" stroke="#000000" stroke-opacity="1" stroke-width="1" stroke-linecap="square" stroke-linejoin="bevel" transform="matrix(2,0,0,2,-15,275)"
font-family="Ubuntu Sans" font-size="11" font-weight="400" font-style="normal" 
>
</g>

<g fill="none" stroke="#000000" stroke-opacity="1" stroke-width="1" stroke-linecap="square" stroke-linejoin="round" transform="matrix(2,0,0,2,-15,275)"
font-family="Ubuntu Sans" font-size="11" font-weight="400" font-style="normal" 
>
<ellipse cx="263.89" cy="-34" rx="107.392" ry="17.5"/>
</g>

<g fill="none" stroke="#000000" stroke-opacity="1" stroke-width="1" stroke-linecap="square" stroke-linejoin="bevel" transform="matrix(2,0,0,2,-15,275)"
font-family="Ubuntu Sans" font-size="11" font-weight="400" font-style="normal" 
>
</g>

<g fill="none" stroke="#000000" stroke-opacity="1" stroke-width="1" stroke-linecap="square" stroke-linejoin="bevel" transform="matrix(2,0,0,2,402.374,191)"
font-family="Ubuntu Sans" font-size="11" font-weight="400" font-style="normal" 
>
</g>

<g fill="none" stroke="#000000" stroke-opacity="1" stroke-width="1" stroke-linecap="square" stroke-linejoin="bevel" transform="matrix(2,0,0,2,402.374,191)"
font-family="sans" font-size="11" font-weight="100" font-style="normal" 
>
</g>

<g fill="#000000" fill-opacity="1" stroke="#000000" stroke-opacity="1" stroke-width="1" stroke-linecap="square" stroke-linejoin="round" transform="matrix(2,0,0,2,402.374,191)"
font-family="sans" font-size="11" font-weight="100" font-style="normal" 
>
<path vector-effect="none" fill-rule="nonzero" d="M3.98438,4.14063 L1.0625,12 L0.109375,12 L3.03125,4.14063 L3.98438,4.14063 M7.76563,6 C7.86979,6 7.98698,6.00521 8.11719,6.01563 C8.2474,6.02604 8.35938,6.04167 8.45313,6.0625 L8.32813,6.95313 C8.23438,6.93229 8.13281,6.91406 8.02344,6.89844 C7.91406,6.88281 7.80729,6.875 7.70313,6.875 C7.40104,6.875 7.11719,6.95833 6.85156,7.125 C6.58594,7.29167 6.375,7.52344 6.21875,7.82031 C6.0625,8.11719 5.98438,8.46354 5.98438,8.85938 L5.98438,12 L5.01563,12 L5.01563,6.10938 L5.8125,6.10938 L5.92188,7.1875 L5.95313,7.1875 C6.15104,6.86458 6.39844,6.58594 6.69531,6.35156 C6.99219,6.11719 7.34896,6 7.76563,6 M14.4531,9.04688 C14.4531,10.0156 14.2057,10.7682 13.7109,11.3047 C13.2161,11.8411 12.5469,12.1094 11.7031,12.1094 C11.1823,12.1094 10.7188,11.9896 10.3125,11.75 C9.90625,11.5104 9.58594,11.1615 9.35156,10.7031 C9.11719,10.2448 9,9.69271 9,9.04688 C9,8.06771 9.24479,7.3151 9.73438,6.78906 C10.224,6.26302 10.8906,6 11.7344,6 C12.2656,6 12.737,6.11719 13.1484,6.35156 C13.5599,6.58594 13.8802,6.92969 14.1094,7.38281 C14.3385,7.83594 14.4531,8.39063 14.4531,9.04688 M10,9.04688 C10,9.73438 10.138,10.2839 10.4141,10.6953 C10.6901,11.1068 11.125,11.3125 11.7188,11.3125 C12.3125,11.3125 12.75,11.1068 13.0313,10.6953 C13.3125,10.2839 13.4531,9.73438 13.4531,9.04688 C13.4531,8.34896 13.3125,7.80208 13.0313,7.40625 C12.75,7.01042 12.3125,6.8125 11.7188,6.8125 C11.1146,6.8125 10.6771,7.01042 10.4063,7.40625 C10.1354,7.80208 10,8.34896 10,9.04688 M19.8125,10.375 C19.8125,10.9479 19.599,11.3802 19.1719,11.6719 C18.7448,11.9635 18.1719,12.1094 17.4531,12.1094 C17.0365,12.1094 16.6797,12.0755 16.3828,12.0078 C16.0859,11.9401 15.8281,11.849 15.6094,11.7344 L15.6094,10.8594 C15.8385,10.974 16.1198,11.0807 16.4531,11.1797 C16.7865,11.2786 17.125,11.3281 17.4688,11.3281 C17.9583,11.3281 18.3151,11.25 18.5391,11.0938 C18.763,10.9375 18.875,10.724 18.875,10.4531 C18.875,10.3073 18.8333,10.1771 18.75,10.0625 C18.6667,9.94792 18.5208,9.83073 18.3125,9.71094 C18.1042,9.59115 17.8073,9.45833 17.4219,9.3125 C17.0365,9.16667 16.7083,9.02083 16.4375,8.875 C16.1667,8.72917 15.9583,8.55469 15.8125,8.35156 C15.6667,8.14844 15.5938,7.88542 15.5938,7.5625 C15.5938,7.0625 15.7969,6.67708 16.2031,6.40625 C16.6094,6.13542 17.1406,6 17.7969,6 C18.1615,6 18.5,6.03385 18.8125,6.10156 C19.125,6.16927 19.4167,6.26563 19.6875,6.39063 L19.3594,7.15625 C19.1094,7.05208 18.849,6.96354 18.5781,6.89063 C18.3073,6.81771 18.026,6.78125 17.7344,6.78125 C17.3385,6.78125 17.0365,6.84635 16.8281,6.97656 C16.6198,7.10677 16.5156,7.28125 16.5156,7.5 C16.5156,7.66667 16.5625,7.80469 16.6563,7.91406 C16.75,8.02344 16.9089,8.13281 17.1328,8.24219 C17.3568,8.35156 17.6563,8.47917 18.0313,8.625 C18.4063,8.76042 18.7266,8.90104 18.9922,9.04688 C19.2578,9.19271 19.4609,9.3724 19.6016,9.58594 C19.7422,9.79948 19.8125,10.0625 19.8125,10.375 M24.0313,6 C24.7604,6 25.3464,6.2526 25.7891,6.75781 C26.2318,7.26302 26.4531,8.02604 26.4531,9.04688 C26.4531,10.0469 26.2318,10.8073 25.7891,11.3281 C25.3464,11.849 24.7604,12.1094 24.0313,12.1094 C23.5729,12.1094 23.1953,12.0234 22.8984,11.8516 C22.6016,11.6797 22.3698,11.4792 22.2031,11.25 L22.1406,11.25 C22.151,11.375 22.1641,11.5339 22.1797,11.7266 C22.1953,11.9193 22.2031,12.0833 22.2031,12.2188 L22.2031,14.6406 L21.2344,14.6406 L21.2344,6.10938 L22.0313,6.10938 L22.1563,6.90625 L22.2031,6.90625 C22.3802,6.64583 22.612,6.42969 22.8984,6.25781 C23.1849,6.08594 23.5625,6 24.0313,6 M23.8594,6.8125 C23.2552,6.8125 22.8307,6.97917 22.5859,7.3125 C22.3411,7.64583 22.2135,8.16146 22.2031,8.85938 L22.2031,9.04688 C22.2031,9.76563 22.3229,10.3229 22.5625,10.7188 C22.8021,11.1146 23.2448,11.3125 23.8906,11.3125 C24.2448,11.3125 24.5365,11.2135 24.7656,11.0156 C24.9948,10.8177 25.1667,10.5469 25.2813,10.2031 C25.3958,9.85938 25.4531,9.46875 25.4531,9.03125 C25.4531,8.35417 25.3229,7.8151 25.0625,7.41406 C24.8021,7.01302 24.401,6.8125 23.8594,6.8125 M31.9531,13.6875 L27.0313,13.6875 L27.0313,12.9844 L31.9531,12.9844 L31.9531,13.6875 M39.3281,6 C39.9948,6 40.4922,6.16927 40.8203,6.50781 C41.1484,6.84635 41.3125,7.39583 41.3125,8.15625 L41.3125,12 L40.3594,12 L40.3594,8.20313 C40.3594,7.27604 39.9583,6.8125 39.1563,6.8125 C38.5833,6.8125 38.1745,6.97656 37.9297,7.30469 C37.6849,7.63281 37.5625,8.11458 37.5625,8.75 L37.5625,12 L36.6094,12 L36.6094,8.20313 C36.6094,7.27604 36.2031,6.8125 35.3906,6.8125 C34.7969,6.8125 34.388,6.99479 34.1641,7.35938 C33.9401,7.72396 33.8281,8.25 33.8281,8.9375 L33.8281,12 L32.8594,12 L32.8594,6.10938 L33.6406,6.10938 L33.7813,6.90625 L33.8438,6.90625 C34.0208,6.59375 34.2656,6.36458 34.5781,6.21875 C34.8906,6.07292 35.224,6 35.5781,6 C36.4948,6 37.0938,6.32813 37.375,6.98438 L37.4375,6.98438 C37.6354,6.65104 37.9036,6.40365 38.2422,6.24219 C38.5807,6.08073 38.9427,6 39.3281,6 M48.2656,9.04688 C48.2656,10.0156 48.0182,10.7682 47.5234,11.3047 C47.0286,11.8411 46.3594,12.1094 45.5156,12.1094 C44.9948,12.1094 44.5313,11.9896 44.125,11.75 C43.7188,11.5104 43.3984,11.1615 43.1641,10.7031 C42.9297,10.2448 42.8125,9.69271 42.8125,9.04688 C42.8125,8.06771 43.0573,7.3151 43.5469,6.78906 C44.0365,6.26302 44.7031,6 45.5469,6 C46.0781,6 46.5495,6.11719 46.9609,6.35156 C47.3724,6.58594 47.6927,6.92969 47.9219,7.38281 C48.151,7.83594 48.2656,8.39063 48.2656,9.04688 M43.8125,9.04688 C43.8125,9.73438 43.9505,10.2839 44.2266,10.6953 C44.5026,11.1068 44.9375,11.3125 45.5313,11.3125 C46.125,11.3125 46.5625,11.1068 46.8438,10.6953 C47.125,10.2839 47.2656,9.73438 47.2656,9.04688 C47.2656,8.34896 47.125,7.80208 46.8438,7.40625 C46.5625,7.01042 46.125,6.8125 45.5313,6.8125 C44.9271,6.8125 44.4896,7.01042 44.2188,7.40625 C43.9479,7.80208 43.8125,8.34896 43.8125,9.04688 M51.75,11.3125 C51.8958,11.3125 52.0469,11.2995 52.2031,11.2734 C52.3594,11.2474 52.4844,11.224 52.5781,11.2031 L52.5781,11.9375 C52.474,11.9896 52.3255,12.0313 52.1328,12.0625 C51.9401,12.0938 51.7552,12.1094 51.5781,12.1094 C51.276,12.1094 50.9948,12.0573 50.7344,11.9531 C50.474,11.849 50.263,11.6641 50.1016,11.3984 C49.9401,11.1328 49.8594,10.7604 49.8594,10.2813 L49.8594,6.84375 L49.0156,6.84375 L49.0156,6.39063 L49.8594,6 L50.25,4.75 L50.8281,4.75 L50.8281,6.10938 L52.5313,6.10938 L52.5313,6.84375 L50.8281,6.84375 L50.8281,10.2656 C50.8281,10.6198 50.9141,10.8828 51.0859,11.0547 C51.2578,11.2266 51.4792,11.3125 51.75,11.3125 M54.25,3.89063 C54.3958,3.89063 54.5234,3.9401 54.6328,4.03906 C54.7422,4.13802 54.7969,4.29688 54.7969,4.51563 C54.7969,4.71354 54.7422,4.86458 54.6328,4.96875 C54.5234,5.07292 54.3958,5.125 54.25,5.125 C54.0833,5.125 53.9453,5.07292 53.8359,4.96875 C53.7266,4.86458 53.6719,4.71354 53.6719,4.51563 C53.6719,4.29688 53.7266,4.13802 53.8359,4.03906 C53.9453,3.9401 54.0833,3.89063 54.25,3.89063 M54.7188,6.10938 L54.7188,12 L53.75,12 L53.75,6.10938 L54.7188,6.10938 M61.7031,9.04688 C61.7031,10.0156 61.4557,10.7682 60.9609,11.3047 C60.4661,11.8411 59.7969,12.1094 58.9531,12.1094 C58.4323,12.1094 57.9688,11.9896 57.5625,11.75 C57.1563,11.5104 56.8359,11.1615 56.6016,10.7031 C56.3672,10.2448 56.25,9.69271 56.25,9.04688 C56.25,8.06771 56.4948,7.3151 56.9844,6.78906 C57.474,6.26302 58.1406,6 58.9844,6 C59.5156,6 59.987,6.11719 60.3984,6.35156 C60.8099,6.58594 61.1302,6.92969 61.3594,7.38281 C61.5885,7.83594 61.7031,8.39063 61.7031,9.04688 M57.25,9.04688 C57.25,9.73438 57.388,10.2839 57.6641,10.6953 C57.9401,11.1068 58.375,11.3125 58.9688,11.3125 C59.5625,11.3125 60,11.1068 60.2813,10.6953 C60.5625,10.2839 60.7031,9.73438 60.7031,9.04688 C60.7031,8.34896 60.5625,7.80208 60.2813,7.40625 C60,7.01042 59.5625,6.8125 58.9688,6.8125 C58.3646,6.8125 57.9271,7.01042 57.6563,7.40625 C57.3854,7.80208 57.25,8.34896 57.25,9.04688 M66.0625,6 C66.7604,6 67.2891,6.16927 67.6484,6.50781 C68.0078,6.84635 68.1875,7.39583 68.1875,8.15625 L68.1875,12 L67.2344,12 L67.2344,8.21875 C67.2344,7.28125 66.7917,6.8125 65.9063,6.8125 C65.2604,6.8125 64.8125,6.99479 64.5625,7.35938 C64.3125,7.72396 64.1875,8.25 64.1875,8.9375 L64.1875,12 L63.2188,12 L63.2188,6.10938 L64,6.10938 L64.1406,6.90625 L64.2031,6.90625 C64.3906,6.59375 64.6536,6.36458 64.9922,6.21875 C65.3307,6.07292 65.6875,6 66.0625,6 M73.9844,13.6875 L69.0625,13.6875 L69.0625,12.9844 L73.9844,12.9844 L73.9844,13.6875 M77.25,12.1094 C76.7292,12.1094 76.2656,12.0026 75.8594,11.7891 C75.4531,11.5755 75.1354,11.2448 74.9063,10.7969 C74.6771,10.349 74.5625,9.77604 74.5625,9.07813 C74.5625,8.35938 74.6823,7.77083 74.9219,7.3125 C75.1615,6.85417 75.4896,6.52083 75.9063,6.3125 C76.3229,6.10417 76.7917,6 77.3125,6 C77.6146,6 77.9063,6.03125 78.1875,6.09375 C78.4688,6.15625 78.6979,6.22917 78.875,6.3125 L78.5781,7.10938 C78.401,7.04688 78.1953,6.98698 77.9609,6.92969 C77.7266,6.8724 77.5052,6.84375 77.2969,6.84375 C76.1406,6.84375 75.5625,7.58854 75.5625,9.07813 C75.5625,9.78646 75.7031,10.3307 75.9844,10.7109 C76.2656,11.0911 76.6875,11.2813 77.25,11.2813 C77.5729,11.2813 77.8568,11.2474 78.1016,11.1797 C78.3464,11.112 78.5677,11.0313 78.7656,10.9375 L78.7656,11.7969 C78.5677,11.8906 78.3516,11.9661 78.1172,12.0234 C77.8828,12.0807 77.5938,12.1094 77.25,12.1094 M85.2813,9.04688 C85.2813,10.0156 85.0339,10.7682 84.5391,11.3047 C84.0443,11.8411 83.375,12.1094 82.5313,12.1094 C82.0104,12.1094 81.5469,11.9896 81.1406,11.75 C80.7344,11.5104 80.4141,11.1615 80.1797,10.7031 C79.9453,10.2448 79.8281,9.69271 79.8281,9.04688 C79.8281,8.06771 80.0729,7.3151 80.5625,6.78906 C81.0521,6.26302 81.7188,6 82.5625,6 C83.0938,6 83.5651,6.11719 83.9766,6.35156 C84.388,6.58594 84.7083,6.92969 84.9375,7.38281 C85.1667,7.83594 85.2813,8.39063 85.2813,9.04688 M80.8281,9.04688 C80.8281,9.73438 80.9661,10.2839 81.2422,10.6953 C81.5182,11.1068 81.9531,11.3125 82.5469,11.3125 C83.1406,11.3125 83.5781,11.1068 83.8594,10.6953 C84.1406,10.2839 84.2813,9.73438 84.2813,9.04688 C84.2813,8.34896 84.1406,7.80208 83.8594,7.40625 C83.5781,7.01042 83.1406,6.8125 82.5469,6.8125 C81.9427,6.8125 81.5052,7.01042 81.2344,7.40625 C80.9635,7.80208 80.8281,8.34896 80.8281,9.04688 M89.6406,6 C90.3385,6 90.8672,6.16927 91.2266,6.50781 C91.5859,6.84635 91.7656,7.39583 91.7656,8.15625 L91.7656,12 L90.8125,12 L90.8125,8.21875 C90.8125,7.28125 90.3698,6.8125 89.4844,6.8125 C88.8385,6.8125 88.3906,6.99479 88.1406,7.35938 C87.8906,7.72396 87.7656,8.25 87.7656,8.9375 L87.7656,12 L86.7969,12 L86.7969,6.10938 L87.5781,6.10938 L87.7188,6.90625 L87.7813,6.90625 C87.9688,6.59375 88.2318,6.36458 88.5703,6.21875 C88.9089,6.07292 89.2656,6 89.6406,6 M95.5625,11.3125 C95.7083,11.3125 95.8594,11.2995 96.0156,11.2734 C96.1719,11.2474 96.2969,11.224 96.3906,11.2031 L96.3906,11.9375 C96.2865,11.9896 96.138,12.0313 95.9453,12.0625 C95.7526,12.0938 95.5677,12.1094 95.3906,12.1094 C95.0885,12.1094 94.8073,12.0573 94.5469,11.9531 C94.2865,11.849 94.0755,11.6641 93.9141,11.3984 C93.7526,11.1328 93.6719,10.7604 93.6719,10.2813 L93.6719,6.84375 L92.8281,6.84375 L92.8281,6.39063 L93.6719,6 L94.0625,4.75 L94.6406,4.75 L94.6406,6.10938 L96.3438,6.10938 L96.3438,6.84375 L94.6406,6.84375 L94.6406,10.2656 C94.6406,10.6198 94.7266,10.8828 94.8984,11.0547 C95.0703,11.2266 95.2917,11.3125 95.5625,11.3125 M100.313,6 C100.417,6 100.534,6.00521 100.664,6.01563 C100.794,6.02604 100.906,6.04167 101,6.0625 L100.875,6.95313 C100.781,6.93229 100.68,6.91406 100.57,6.89844 C100.461,6.88281 100.354,6.875 100.25,6.875 C99.9479,6.875 99.6641,6.95833 99.3984,7.125 C99.1328,7.29167 98.9219,7.52344 98.7656,7.82031 C98.6094,8.11719 98.5313,8.46354 98.5313,8.85938 L98.5313,12 L97.5625,12 L97.5625,6.10938 L98.3594,6.10938 L98.4688,7.1875 L98.5,7.1875 C98.6979,6.86458 98.9453,6.58594 99.2422,6.35156 C99.5391,6.11719 99.8958,6 100.313,6 M107,9.04688 C107,10.0156 106.753,10.7682 106.258,11.3047 C105.763,11.8411 105.094,12.1094 104.25,12.1094 C103.729,12.1094 103.266,11.9896 102.859,11.75 C102.453,11.5104 102.133,11.1615 101.898,10.7031 C101.664,10.2448 101.547,9.69271 101.547,9.04688 C101.547,8.06771 101.792,7.3151 102.281,6.78906 C102.771,6.26302 103.438,6 104.281,6 C104.813,6 105.284,6.11719 105.695,6.35156 C106.107,6.58594 106.427,6.92969 106.656,7.38281 C106.885,7.83594 107,8.39063 107,9.04688 M102.547,9.04688 C102.547,9.73438 102.685,10.2839 102.961,10.6953 C103.237,11.1068 103.672,11.3125 104.266,11.3125 C104.859,11.3125 105.297,11.1068 105.578,10.6953 C105.859,10.2839 106,9.73438 106,9.04688 C106,8.34896 105.859,7.80208 105.578,7.40625 C105.297,7.01042 104.859,6.8125 104.266,6.8125 C103.661,6.8125 103.224,7.01042 102.953,7.40625 C102.682,7.80208 102.547,8.34896 102.547,9.04688 M109.484,12 L108.516,12 L108.516,3.64063 L109.484,3.64063 L109.484,12"/>
</g>

<g fill="none" stroke="#000000" stroke-opacity="1" stroke-width="1" stroke-linecap="square" stroke-linejoin="bevel" transform="matrix(2,0,0,2,402.374,191)"
font-family="sans" font-size="11" font-weight="100" font-style="normal" 
>
</g>

<g fill="none" stroke="#000000" stroke-opacity="1" stroke-width="1" stroke-linecap="square" stroke-linejoin="bevel" transform="matrix(2,0,0,2,402.374,191)"
font-family="Ubuntu Sans" font-size="11" font-weight="400" font-style="normal" 
>
</g>

<g fill="none" stroke="#000000" stroke-opacity="1" stroke-width="1" stroke-linecap="square" stroke-linejoin="bevel" transform="matrix(2,0,0,2,-15,275)"
font-family="Ubuntu Sans" font-size="11" font-weight="400" font-style="normal" 
>
</g>

<g fill="none" stroke="#000000" stroke-opacity="1" stroke-width="1" stroke-linecap="square" stroke-linejoin="bevel" transform="matrix(2,0,0,2,-15,275)"
font-family="Ubuntu Sans" font-size="11" font-weight="400" font-style="normal" 
>
</g>

<g fill="none" stroke="#000000" stroke-opacity="1" stroke-width="1" stroke-linecap="square" stroke-linejoin="bevel" transform="matrix(2,0,0,2,-15,275)"
font-family="Ubuntu Sans" font-size="11" font-weight="400" font-style="normal" 
>
</g>

<g fill="none" stroke="#000000" stroke-opacity="1" stroke-width="1" stroke-linecap="square" stroke-linejoin="round" transform="matrix(2,0,0,2,-15,275)"
font-family="Ubuntu Sans" font-size="11" font-weight="400" font-style="normal" 
>
<path vector-effect="none" fill-rule="evenodd" d="M140.23,-88 C158.48,-88 178.55,-88 197.08,-88 "/>
</g>

<g fill="none" stroke="#000000" stroke-opacity="1" stroke-width="1" stroke-linecap="square" stroke-linejoin="bevel" transform="matrix(2,0,0,2,-15,275)"
font-family="Ubuntu Sans" font-size="11" font-weight="400" font-style="normal" 
>
</g>

<g fill="none" stroke="#000000" stroke-opacity="1" stroke-width="1" stroke-linecap="square" stroke-linejoin="bevel" transform="matrix(2,0,0,2,-15,275)"
font-family="Ubuntu Sans" font-size="11" font-weight="400" font-style="normal" 
>
</g>

<g fill="#000000" fill-opacity="1" stroke="#000000" stroke-opacity="1" stroke-width="1" stroke-linecap="square" stroke-linejoin="round" transform="matrix(2,0,0,2,-15,275)"
font-family="Ubuntu Sans" font-size="11" font-weight="400" font-style="normal" 
>
<path vector-effect="none" fill-rule="evenodd" d="M197.08,-88 L197.08,-84.4615 L207.19,-88 L197.08,-91.5385 L197.08,-88"/>
</g>

<g fill="none" stroke="#000000" stroke-opacity="1" stroke-width="1" stroke-linecap="square" stroke-linejoin="bevel" transform="matrix(2,0,0,2,-15,275)"
font-family="Ubuntu Sans" font-size="11" font-weight="400" font-style="normal" 
>
</g>

<g fill="none" stroke="#000000" stroke-opacity="1" stroke-width="1" stroke-linecap="square" stroke-linejoin="bevel" transform="matrix(2,0,0,2,-15,275)"
font-family="Ubuntu Sans" font-size="11" font-weight="400" font-style="normal" 
>
</g>

<g fill="none" stroke="#000000" stroke-opacity="1" stroke-width="1" stroke-linecap="square" stroke-linejoin="bevel" transform="matrix(2,0,0,2,-15,275)"
font-family="Ubuntu Sans" font-size="11" font-weight="400" font-style="normal" 
>
</g>

<g fill="none" stroke="#000000" stroke-opacity="1" stroke-width="1" stroke-linecap="square" stroke-linejoin="bevel" transform="matrix(2,0,0,2,-15,275)"
font-family="Ubuntu Sans" font-size="11" font-weight="400" font-style="normal" 
>
</g>

<g fill="none" stroke="#000000" stroke-opacity="1" stroke-width="1" stroke-linecap="square" stroke-linejoin="round" transform="matrix(2,0,0,2,-15,275)"
font-family="Ubuntu Sans" font-size="11" font-weight="400" font-style="normal" 
>
<path vector-effect="none" fill-rule="evenodd" d="M127.8,-34 C133.45,-34 139.39,-34 145.5,-34 "/>
</g>

<g fill="none" stroke="#000000" stroke-opacity="1" stroke-width="1" stroke-linecap="square" stroke-linejoin="bevel" transform="matrix(2,0,0,2,-15,275)"
font-family="Ubuntu Sans" font-size="11" font-weight="400" font-style="normal" 
>
</g>

<g fill="none" stroke="#000000" stroke-opacity="1" stroke-width="1" stroke-linecap="square" stroke-linejoin="bevel" transform="matrix(2,0,0,2,-15,275)"
font-family="Ubuntu Sans" font-size="11" font-weight="400" font-style="normal" 
>
</g>

<g fill="#000000" fill-opacity="1" stroke="#000000" stroke-opacity="1" stroke-width="1" stroke-linecap="square" stroke-linejoin="round" transform="matrix(2,0,0,2,-15,275)"
font-family="Ubuntu Sans" font-size="11" font-weight="400" font-style="normal" 
>
<path vector-effect="none" fill-rule="evenodd" d="M145.5,-34 L145.5,-30.36 L155.9,-34 L145.5,-37.64 L145.5,-34"/>
</g>

<g fill="none" stroke="#000000" stroke-opacity="1" stroke-width="1" stroke-linecap="square" stroke-linejoin="bevel" transform="matrix(2,0,0,2,-15,275)"
font-family="Ubuntu Sans" font-size="11" font-weight="400" font-style="normal" 
>
</g>

<g fill="none" stroke="#000000" stroke-opacity="1" stroke-width="1" stroke-linecap="square" stroke-linejoin="bevel" transform="matrix(2,0,0,2,-15,275)"
font-family="Ubuntu Sans" font-size="11" font-weight="400" font-style="normal" 
>
</g>

<g fill="none" stroke="#000000" stroke-opacity="1" stroke-width="1" stroke-linecap="square" stroke-linejoin="bevel" transform="matrix(2,0,0,2,-15,275)"
font-family="Ubuntu Sans" font-size="11" font-weight="400" font-style="normal" 
>
</g>

<g fill="none" stroke="#000000" stroke-opacity="1" stroke-width="1" stroke-linecap="square" stroke-linejoin="bevel" transform="matrix(2,0,0,2,-15,275)"
font-family="Ubuntu Sans" font-size="11" font-weight="400" font-style="normal" 
>
</g>

<g fill="none" stroke="#000000" stroke-opacity="1" stroke-width="1" stroke-linecap="square" stroke-linejoin="round" transform="matrix(2,0,0,2,-15,275)"
font-family="Ubuntu Sans" font-size="11" font-weight="400" font-style="normal" 
>
<path vector-effect="none" fill-rule="evenodd" d="M217.66,-77.528 C198.53,-72.853 176.07,-67.04 156,-61 C149.95,-59.178 143.66,-57.171 137.42,-55.099 "/>
</g>

<g fill="none" stroke="#000000" stroke-opacity="1" stroke-width="1" stroke-linecap="square" stroke-linejoin="bevel" transform="matrix(2,0,0,2,-15,275)"
font-family="Ubuntu Sans" font-size="11" font-weight="400" font-style="normal" 
>
</g>

<g fill="none" stroke="#000000" stroke-opacity="1" stroke-width="1" stroke-linecap="square" stroke-linejoin="bevel" transform="matrix(2,0,0,2,-15,275)"
font-family="Ubuntu Sans" font-size="11" font-weight="400" font-style="normal" 
>
</g>

<g fill="#000000" fill-opacity="1" stroke="#000000" stroke-opacity="1" stroke-width="1" stroke-linecap="square" stroke-linejoin="round" transform="matrix(2,0,0,2,-15,275)"
font-family="Ubuntu Sans" font-size="11" font-weight="400" font-style="normal" 
>
<path vector-effect="none" fill-rule="evenodd" d="M137.42,-55.099 L136.267,-58.515 L127.66,-51.805 L138.573,-51.683 L137.42,-55.099"/>
</g>

<g fill="none" stroke="#000000" stroke-opacity="1" stroke-width="1" stroke-linecap="square" stroke-linejoin="bevel" transform="matrix(2,0,0,2,-15,275)"
font-family="Ubuntu Sans" font-size="11" font-weight="400" font-style="normal" 
>
</g>

<g fill="none" stroke="#000000" stroke-opacity="1" stroke-width="1" stroke-linecap="square" stroke-linejoin="bevel" transform="matrix(2,0,0,2,-15,275)"
font-family="Ubuntu Sans" font-size="11" font-weight="400" font-style="normal" 
>
</g>

<g fill="none" stroke="#000000" stroke-opacity="1" stroke-width="1" stroke-linecap="square" stroke-linejoin="bevel" transform="matrix(2,0,0,2,-15,275)"
font-family="Ubuntu Sans" font-size="11" font-weight="400" font-style="normal" 
>
</g>

<g fill="none" stroke="#000000" stroke-opacity="1" stroke-width="1" stroke-linecap="square" stroke-linejoin="bevel" transform="matrix(2,0,0,2,-15,275)"
font-family="Ubuntu Sans" font-size="11" font-weight="400" font-style="normal" 
>
</g>

<g fill="none" stroke="#000000" stroke-opacity="1" stroke-width="1" stroke-linecap="square" stroke-linejoin="round" transform="matrix(2,0,0,2,-15,275)"
font-family="Ubuntu Sans" font-size="11" font-weight="400" font-style="normal" 
>
<path vector-effect="none" fill-rule="evenodd" d="M200.74,-48.696 C186,-52.457 170.39,-56.67 156,-61 C150.12,-62.768 144.03,-64.711 137.97,-66.719 "/>
</g>

<g fill="none" stroke="#000000" stroke-opacity="1" stroke-width="1" stroke-linecap="square" stroke-linejoin="bevel" transform="matrix(2,0,0,2,-15,275)"
font-family="Ubuntu Sans" font-size="11" font-weight="400" font-style="normal" 
>
</g>

<g fill="none" stroke="#000000" stroke-opacity="1" stroke-width="1" stroke-linecap="square" stroke-linejoin="bevel" transform="matrix(2,0,0,2,-15,275)"
font-family="Ubuntu Sans" font-size="11" font-weight="400" font-style="normal" 
>
</g>

<g fill="#000000" fill-opacity="1" stroke="#000000" stroke-opacity="1" stroke-width="1" stroke-linecap="square" stroke-linejoin="round" transform="matrix(2,0,0,2,-15,275)"
font-family="Ubuntu Sans" font-size="11" font-weight="400" font-style="normal" 
>
<path vector-effect="none" fill-rule="evenodd" d="M137.97,-66.719 L139.087,-70.037 L128.49,-69.911 L136.853,-63.401 L137.97,-66.719"/>
</g>

<g fill="none" stroke="#000000" stroke-opacity="1" stroke-width="1" stroke-linecap="square" stroke-linejoin="bevel" transform="matrix(2,0,0,2,-15,275)"
font-family="Ubuntu Sans" font-size="11" font-weight="400" font-style="normal" 
>
</g>

<g fill="none" stroke="#000000" stroke-opacity="1" stroke-width="1" stroke-linecap="square" stroke-linejoin="bevel" transform="matrix(1,0,0,1,0,0)"
font-family="Ubuntu Sans" font-size="11" font-weight="400" font-style="normal" 
>
</g>
</g>
</svg>
